%TF.GenerationSoftware,KiCad,Pcbnew,(6.0.0)*%
%TF.CreationDate,2023-03-17T17:00:08+09:00*%
%TF.ProjectId,2sk117 amplifier,32736b31-3137-4206-916d-706c69666965,rev?*%
%TF.SameCoordinates,Original*%
%TF.FileFunction,Legend,Top*%
%TF.FilePolarity,Positive*%
%FSLAX46Y46*%
G04 Gerber Fmt 4.6, Leading zero omitted, Abs format (unit mm)*
G04 Created by KiCad (PCBNEW (6.0.0)) date 2023-03-17 17:00:08*
%MOMM*%
%LPD*%
G01*
G04 APERTURE LIST*
%ADD10C,0.150000*%
%ADD11C,0.120000*%
%ADD12R,1.600000X1.600000*%
%ADD13C,1.600000*%
%ADD14C,2.000000*%
%ADD15R,1.500000X1.500000*%
%ADD16C,1.500000*%
%ADD17C,3.200000*%
%ADD18O,1.600000X1.600000*%
G04 APERTURE END LIST*
D10*
X72114829Y-77036616D02*
X72067210Y-76988997D01*
X71971972Y-76846140D01*
X71924353Y-76750902D01*
X71876734Y-76608044D01*
X71829115Y-76369949D01*
X71829115Y-76179473D01*
X71876734Y-75941378D01*
X71924353Y-75798521D01*
X71971972Y-75703283D01*
X72067210Y-75560425D01*
X72114829Y-75512806D01*
X72448162Y-75750902D02*
X72495781Y-75703283D01*
X72591019Y-75655663D01*
X72829115Y-75655663D01*
X72924353Y-75703283D01*
X72971972Y-75750902D01*
X73019591Y-75846140D01*
X73019591Y-75941378D01*
X72971972Y-76084235D01*
X72400543Y-76655663D01*
X73019591Y-76655663D01*
X73352924Y-77036616D02*
X73400543Y-76988997D01*
X73495781Y-76846140D01*
X73543400Y-76750902D01*
X73591019Y-76608044D01*
X73638638Y-76369949D01*
X73638638Y-76179473D01*
X73591019Y-75941378D01*
X73543400Y-75798521D01*
X73495781Y-75703283D01*
X73400543Y-75560425D01*
X73352924Y-75512806D01*
X54118185Y-67513100D02*
X54070566Y-67465481D01*
X53975328Y-67322624D01*
X53927709Y-67227386D01*
X53880090Y-67084528D01*
X53832471Y-66846433D01*
X53832471Y-66655957D01*
X53880090Y-66417862D01*
X53927709Y-66275005D01*
X53975328Y-66179767D01*
X54070566Y-66036909D01*
X54118185Y-65989290D01*
X54451518Y-66227386D02*
X54499137Y-66179767D01*
X54594375Y-66132147D01*
X54832471Y-66132147D01*
X54927709Y-66179767D01*
X54975328Y-66227386D01*
X55022947Y-66322624D01*
X55022947Y-66417862D01*
X54975328Y-66560719D01*
X54403899Y-67132147D01*
X55022947Y-67132147D01*
X55356280Y-67513100D02*
X55403899Y-67465481D01*
X55499137Y-67322624D01*
X55546756Y-67227386D01*
X55594375Y-67084528D01*
X55641994Y-66846433D01*
X55641994Y-66655957D01*
X55594375Y-66417862D01*
X55546756Y-66275005D01*
X55499137Y-66179767D01*
X55403899Y-66036909D01*
X55356280Y-65989290D01*
X74425682Y-66252634D02*
X74378063Y-66205015D01*
X74282825Y-66062158D01*
X74235206Y-65966920D01*
X74187587Y-65824062D01*
X74139968Y-65585967D01*
X74139968Y-65395491D01*
X74187587Y-65157396D01*
X74235206Y-65014539D01*
X74282825Y-64919301D01*
X74378063Y-64776443D01*
X74425682Y-64728824D01*
X74759015Y-64966920D02*
X74806634Y-64919301D01*
X74901872Y-64871681D01*
X75139968Y-64871681D01*
X75235206Y-64919301D01*
X75282825Y-64966920D01*
X75330444Y-65062158D01*
X75330444Y-65157396D01*
X75282825Y-65300253D01*
X74711396Y-65871681D01*
X75330444Y-65871681D01*
X75663777Y-66252634D02*
X75711396Y-66205015D01*
X75806634Y-66062158D01*
X75854253Y-65966920D01*
X75901872Y-65824062D01*
X75949491Y-65585967D01*
X75949491Y-65395491D01*
X75901872Y-65157396D01*
X75854253Y-65014539D01*
X75806634Y-64919301D01*
X75711396Y-64776443D01*
X75663777Y-64728824D01*
X71834726Y-61420851D02*
X71787107Y-61373232D01*
X71691869Y-61230375D01*
X71644250Y-61135137D01*
X71596631Y-60992279D01*
X71549012Y-60754184D01*
X71549012Y-60563708D01*
X71596631Y-60325613D01*
X71644250Y-60182756D01*
X71691869Y-60087518D01*
X71787107Y-59944660D01*
X71834726Y-59897041D01*
X72168059Y-60135137D02*
X72215678Y-60087518D01*
X72310916Y-60039898D01*
X72549012Y-60039898D01*
X72644250Y-60087518D01*
X72691869Y-60135137D01*
X72739488Y-60230375D01*
X72739488Y-60325613D01*
X72691869Y-60468470D01*
X72120440Y-61039898D01*
X72739488Y-61039898D01*
X73072821Y-61420851D02*
X73120440Y-61373232D01*
X73215678Y-61230375D01*
X73263297Y-61135137D01*
X73310916Y-60992279D01*
X73358535Y-60754184D01*
X73358535Y-60563708D01*
X73310916Y-60325613D01*
X73263297Y-60182756D01*
X73215678Y-60087518D01*
X73120440Y-59944660D01*
X73072821Y-59897041D01*
X54430515Y-71053595D02*
X53859086Y-71053595D01*
X54144801Y-71053595D02*
X54144801Y-70053595D01*
X54049562Y-70196453D01*
X53954324Y-70291691D01*
X53859086Y-70339310D01*
X55287658Y-70386929D02*
X55287658Y-71053595D01*
X54859086Y-70386929D02*
X54859086Y-70910738D01*
X54906705Y-71005976D01*
X55001943Y-71053595D01*
X55144801Y-71053595D01*
X55240039Y-71005976D01*
X55287658Y-70958357D01*
X62738095Y-50300000D02*
X62642857Y-50252380D01*
X62500000Y-50252380D01*
X62357142Y-50300000D01*
X62261904Y-50395238D01*
X62214285Y-50490476D01*
X62166666Y-50680952D01*
X62166666Y-50823809D01*
X62214285Y-51014285D01*
X62261904Y-51109523D01*
X62357142Y-51204761D01*
X62500000Y-51252380D01*
X62595238Y-51252380D01*
X62738095Y-51204761D01*
X62785714Y-51157142D01*
X62785714Y-50823809D01*
X62595238Y-50823809D01*
X63214285Y-51252380D02*
X63214285Y-50252380D01*
X63785714Y-51252380D01*
X63785714Y-50252380D01*
X64261904Y-51252380D02*
X64261904Y-50252380D01*
X64500000Y-50252380D01*
X64642857Y-50300000D01*
X64738095Y-50395238D01*
X64785714Y-50490476D01*
X64833333Y-50680952D01*
X64833333Y-50823809D01*
X64785714Y-51014285D01*
X64738095Y-51109523D01*
X64642857Y-51204761D01*
X64500000Y-51252380D01*
X64261904Y-51252380D01*
X59669694Y-69848333D02*
X59622075Y-69800714D01*
X59574455Y-69705476D01*
X59574455Y-69467380D01*
X59622075Y-69372142D01*
X59669694Y-69324523D01*
X59764932Y-69276904D01*
X59860170Y-69276904D01*
X60003027Y-69324523D01*
X60574455Y-69895952D01*
X60574455Y-69276904D01*
X60526836Y-68895952D02*
X60574455Y-68753095D01*
X60574455Y-68515000D01*
X60526836Y-68419761D01*
X60479217Y-68372142D01*
X60383979Y-68324523D01*
X60288741Y-68324523D01*
X60193503Y-68372142D01*
X60145884Y-68419761D01*
X60098265Y-68515000D01*
X60050646Y-68705476D01*
X60003027Y-68800714D01*
X59955408Y-68848333D01*
X59860170Y-68895952D01*
X59764932Y-68895952D01*
X59669694Y-68848333D01*
X59622075Y-68800714D01*
X59574455Y-68705476D01*
X59574455Y-68467380D01*
X59622075Y-68324523D01*
X60574455Y-67895952D02*
X59574455Y-67895952D01*
X60574455Y-67324523D02*
X60003027Y-67753095D01*
X59574455Y-67324523D02*
X60145884Y-67895952D01*
X60574455Y-66372142D02*
X60574455Y-66943571D01*
X60574455Y-66657857D02*
X59574455Y-66657857D01*
X59717313Y-66753095D01*
X59812551Y-66848333D01*
X59860170Y-66943571D01*
X60574455Y-65419761D02*
X60574455Y-65991190D01*
X60574455Y-65705476D02*
X59574455Y-65705476D01*
X59717313Y-65800714D01*
X59812551Y-65895952D01*
X59860170Y-65991190D01*
X59574455Y-65086428D02*
X59574455Y-64419761D01*
X60574455Y-64848333D01*
X60955408Y-63753095D02*
X60907789Y-63800714D01*
X60764932Y-63895952D01*
X60669694Y-63943571D01*
X60526836Y-63991190D01*
X60288741Y-64038809D01*
X60098265Y-64038809D01*
X59860170Y-63991190D01*
X59717313Y-63943571D01*
X59622075Y-63895952D01*
X59479217Y-63800714D01*
X59431598Y-63753095D01*
X59669694Y-63419761D02*
X59622075Y-63372142D01*
X59574455Y-63276904D01*
X59574455Y-63038809D01*
X59622075Y-62943571D01*
X59669694Y-62895952D01*
X59764932Y-62848333D01*
X59860170Y-62848333D01*
X60003027Y-62895952D01*
X60574455Y-63467380D01*
X60574455Y-62848333D01*
X60955408Y-62515000D02*
X60907789Y-62467380D01*
X60764932Y-62372142D01*
X60669694Y-62324523D01*
X60526836Y-62276904D01*
X60288741Y-62229285D01*
X60098265Y-62229285D01*
X59860170Y-62276904D01*
X59717313Y-62324523D01*
X59622075Y-62372142D01*
X59479217Y-62467380D01*
X59431598Y-62515000D01*
X73477619Y-53792380D02*
X74001428Y-53125714D01*
X73477619Y-53125714D02*
X74001428Y-53792380D01*
X74287142Y-52792380D02*
X74906190Y-52792380D01*
X74572857Y-53173333D01*
X74715714Y-53173333D01*
X74810952Y-53220952D01*
X74858571Y-53268571D01*
X74906190Y-53363809D01*
X74906190Y-53601904D01*
X74858571Y-53697142D01*
X74810952Y-53744761D01*
X74715714Y-53792380D01*
X74430000Y-53792380D01*
X74334761Y-53744761D01*
X74287142Y-53697142D01*
X75334761Y-53697142D02*
X75382380Y-53744761D01*
X75334761Y-53792380D01*
X75287142Y-53744761D01*
X75334761Y-53697142D01*
X75334761Y-53792380D01*
X75858571Y-53792380D02*
X76049047Y-53792380D01*
X76144285Y-53744761D01*
X76191904Y-53697142D01*
X76287142Y-53554285D01*
X76334761Y-53363809D01*
X76334761Y-52982857D01*
X76287142Y-52887619D01*
X76239523Y-52840000D01*
X76144285Y-52792380D01*
X75953809Y-52792380D01*
X75858571Y-52840000D01*
X75810952Y-52887619D01*
X75763333Y-52982857D01*
X75763333Y-53220952D01*
X75810952Y-53316190D01*
X75858571Y-53363809D01*
X75953809Y-53411428D01*
X76144285Y-53411428D01*
X76239523Y-53363809D01*
X76287142Y-53316190D01*
X76334761Y-53220952D01*
X42724975Y-56241706D02*
X42724975Y-56908372D01*
X42486880Y-55860753D02*
X42248785Y-56575039D01*
X42867832Y-56575039D01*
X43153547Y-55908372D02*
X43820213Y-55908372D01*
X43391642Y-56908372D01*
X44629737Y-56241706D02*
X44629737Y-56908372D01*
X44201166Y-56241706D02*
X44201166Y-56765515D01*
X44248785Y-56860753D01*
X44344023Y-56908372D01*
X44486880Y-56908372D01*
X44582118Y-56860753D01*
X44629737Y-56813134D01*
X68196187Y-76840528D02*
X68243806Y-76888147D01*
X68196187Y-76935766D01*
X68148568Y-76888147D01*
X68196187Y-76840528D01*
X68196187Y-76935766D01*
X68005711Y-75983386D02*
X68100949Y-75935766D01*
X68339044Y-75935766D01*
X68434282Y-75983386D01*
X68481901Y-76078624D01*
X68481901Y-76173862D01*
X68434282Y-76269100D01*
X68386663Y-76316719D01*
X68291425Y-76364338D01*
X68243806Y-76411957D01*
X68196187Y-76507195D01*
X68196187Y-76554814D01*
X69053330Y-76840528D02*
X69100949Y-76888147D01*
X69053330Y-76935766D01*
X69005711Y-76888147D01*
X69053330Y-76840528D01*
X69053330Y-76935766D01*
X68862854Y-75983386D02*
X68958092Y-75935766D01*
X69196187Y-75935766D01*
X69291425Y-75983386D01*
X69339044Y-76078624D01*
X69339044Y-76173862D01*
X69291425Y-76269100D01*
X69243806Y-76316719D01*
X69148568Y-76364338D01*
X69100949Y-76411957D01*
X69053330Y-76507195D01*
X69053330Y-76554814D01*
X61912095Y-79802655D02*
X61912095Y-80374084D01*
X61912095Y-80088369D02*
X60912095Y-80088369D01*
X61054953Y-80183607D01*
X61150191Y-80278845D01*
X61197810Y-80374084D01*
X61912095Y-79374084D02*
X60912095Y-79374084D01*
X61626381Y-79040750D01*
X60912095Y-78707417D01*
X61912095Y-78707417D01*
X62293048Y-77945512D02*
X62245429Y-77993131D01*
X62102572Y-78088369D01*
X62007334Y-78135988D01*
X61864476Y-78183607D01*
X61626381Y-78231226D01*
X61435905Y-78231226D01*
X61197810Y-78183607D01*
X61054953Y-78135988D01*
X60959715Y-78088369D01*
X60816857Y-77993131D01*
X60769238Y-77945512D01*
X61007334Y-77612179D02*
X60959715Y-77564560D01*
X60912095Y-77469322D01*
X60912095Y-77231226D01*
X60959715Y-77135988D01*
X61007334Y-77088369D01*
X61102572Y-77040750D01*
X61197810Y-77040750D01*
X61340667Y-77088369D01*
X61912095Y-77659798D01*
X61912095Y-77040750D01*
X62293048Y-76707417D02*
X62245429Y-76659798D01*
X62102572Y-76564560D01*
X62007334Y-76516941D01*
X61864476Y-76469322D01*
X61626381Y-76421703D01*
X61435905Y-76421703D01*
X61197810Y-76469322D01*
X61054953Y-76516941D01*
X60959715Y-76564560D01*
X60816857Y-76659798D01*
X60769238Y-76707417D01*
X41727619Y-59142380D02*
X42346666Y-59142380D01*
X42013333Y-59523333D01*
X42156190Y-59523333D01*
X42251428Y-59570952D01*
X42299047Y-59618571D01*
X42346666Y-59713809D01*
X42346666Y-59951904D01*
X42299047Y-60047142D01*
X42251428Y-60094761D01*
X42156190Y-60142380D01*
X41870476Y-60142380D01*
X41775238Y-60094761D01*
X41727619Y-60047142D01*
X42775238Y-60047142D02*
X42822857Y-60094761D01*
X42775238Y-60142380D01*
X42727619Y-60094761D01*
X42775238Y-60047142D01*
X42775238Y-60142380D01*
X43299047Y-60142380D02*
X43489523Y-60142380D01*
X43584761Y-60094761D01*
X43632380Y-60047142D01*
X43727619Y-59904285D01*
X43775238Y-59713809D01*
X43775238Y-59332857D01*
X43727619Y-59237619D01*
X43680000Y-59190000D01*
X43584761Y-59142380D01*
X43394285Y-59142380D01*
X43299047Y-59190000D01*
X43251428Y-59237619D01*
X43203809Y-59332857D01*
X43203809Y-59570952D01*
X43251428Y-59666190D01*
X43299047Y-59713809D01*
X43394285Y-59761428D01*
X43584761Y-59761428D01*
X43680000Y-59713809D01*
X43727619Y-59666190D01*
X43775238Y-59570952D01*
X44203809Y-60142380D02*
X44203809Y-59142380D01*
X44299047Y-59761428D02*
X44584761Y-60142380D01*
X44584761Y-59475714D02*
X44203809Y-59856666D01*
X46996589Y-78939902D02*
X46996589Y-79511330D01*
X46996589Y-79225616D02*
X45996589Y-79225616D01*
X46139447Y-79320854D01*
X46234685Y-79416092D01*
X46282304Y-79511330D01*
X46996589Y-78511330D02*
X45996589Y-78511330D01*
X46710875Y-78177997D01*
X45996589Y-77844664D01*
X46996589Y-77844664D01*
X68085556Y-61109924D02*
X67514127Y-61109924D01*
X67799842Y-61109924D02*
X67799842Y-60109924D01*
X67704603Y-60252782D01*
X67609365Y-60348020D01*
X67514127Y-60395639D01*
X68942699Y-60443258D02*
X68942699Y-61109924D01*
X68514127Y-60443258D02*
X68514127Y-60967067D01*
X68561746Y-61062305D01*
X68656984Y-61109924D01*
X68799842Y-61109924D01*
X68895080Y-61062305D01*
X68942699Y-61014686D01*
X35858420Y-63952380D02*
X35858420Y-62952380D01*
X36334610Y-63952380D02*
X36334610Y-62952380D01*
X36906039Y-63952380D01*
X36906039Y-62952380D01*
X45991604Y-68730476D02*
X45943985Y-68682857D01*
X45896365Y-68587619D01*
X45896365Y-68349523D01*
X45943985Y-68254285D01*
X45991604Y-68206666D01*
X46086842Y-68159047D01*
X46182080Y-68159047D01*
X46324937Y-68206666D01*
X46896365Y-68778095D01*
X46896365Y-68159047D01*
X46848746Y-67778095D02*
X46896365Y-67635238D01*
X46896365Y-67397142D01*
X46848746Y-67301904D01*
X46801127Y-67254285D01*
X46705889Y-67206666D01*
X46610651Y-67206666D01*
X46515413Y-67254285D01*
X46467794Y-67301904D01*
X46420175Y-67397142D01*
X46372556Y-67587619D01*
X46324937Y-67682857D01*
X46277318Y-67730476D01*
X46182080Y-67778095D01*
X46086842Y-67778095D01*
X45991604Y-67730476D01*
X45943985Y-67682857D01*
X45896365Y-67587619D01*
X45896365Y-67349523D01*
X45943985Y-67206666D01*
X46896365Y-66778095D02*
X45896365Y-66778095D01*
X46896365Y-66206666D02*
X46324937Y-66635238D01*
X45896365Y-66206666D02*
X46467794Y-66778095D01*
X46896365Y-65254285D02*
X46896365Y-65825714D01*
X46896365Y-65540000D02*
X45896365Y-65540000D01*
X46039223Y-65635238D01*
X46134461Y-65730476D01*
X46182080Y-65825714D01*
X46896365Y-64301904D02*
X46896365Y-64873333D01*
X46896365Y-64587619D02*
X45896365Y-64587619D01*
X46039223Y-64682857D01*
X46134461Y-64778095D01*
X46182080Y-64873333D01*
X45896365Y-63968571D02*
X45896365Y-63301904D01*
X46896365Y-63730476D01*
X61370384Y-55332380D02*
X61989432Y-55332380D01*
X61656099Y-55713333D01*
X61798956Y-55713333D01*
X61894194Y-55760952D01*
X61941813Y-55808571D01*
X61989432Y-55903809D01*
X61989432Y-56141904D01*
X61941813Y-56237142D01*
X61894194Y-56284761D01*
X61798956Y-56332380D01*
X61513242Y-56332380D01*
X61418003Y-56284761D01*
X61370384Y-56237142D01*
X62418003Y-56237142D02*
X62465623Y-56284761D01*
X62418003Y-56332380D01*
X62370384Y-56284761D01*
X62418003Y-56237142D01*
X62418003Y-56332380D01*
X62941813Y-56332380D02*
X63132289Y-56332380D01*
X63227527Y-56284761D01*
X63275146Y-56237142D01*
X63370384Y-56094285D01*
X63418003Y-55903809D01*
X63418003Y-55522857D01*
X63370384Y-55427619D01*
X63322765Y-55380000D01*
X63227527Y-55332380D01*
X63037051Y-55332380D01*
X62941813Y-55380000D01*
X62894194Y-55427619D01*
X62846575Y-55522857D01*
X62846575Y-55760952D01*
X62894194Y-55856190D01*
X62941813Y-55903809D01*
X63037051Y-55951428D01*
X63227527Y-55951428D01*
X63322765Y-55903809D01*
X63370384Y-55856190D01*
X63418003Y-55760952D01*
X63846575Y-56332380D02*
X63846575Y-55332380D01*
X63941813Y-55951428D02*
X64227527Y-56332380D01*
X64227527Y-55665714D02*
X63846575Y-56046666D01*
X64941813Y-56713333D02*
X64894194Y-56665714D01*
X64798956Y-56522857D01*
X64751337Y-56427619D01*
X64703718Y-56284761D01*
X64656099Y-56046666D01*
X64656099Y-55856190D01*
X64703718Y-55618095D01*
X64751337Y-55475238D01*
X64798956Y-55380000D01*
X64894194Y-55237142D01*
X64941813Y-55189523D01*
X65275146Y-55427619D02*
X65322765Y-55380000D01*
X65418003Y-55332380D01*
X65656099Y-55332380D01*
X65751337Y-55380000D01*
X65798956Y-55427619D01*
X65846575Y-55522857D01*
X65846575Y-55618095D01*
X65798956Y-55760952D01*
X65227527Y-56332380D01*
X65846575Y-56332380D01*
X66179908Y-56713333D02*
X66227527Y-56665714D01*
X66322765Y-56522857D01*
X66370384Y-56427619D01*
X66418003Y-56284761D01*
X66465623Y-56046666D01*
X66465623Y-55856190D01*
X66418003Y-55618095D01*
X66370384Y-55475238D01*
X66322765Y-55380000D01*
X66227527Y-55237142D01*
X66179908Y-55189523D01*
X65763517Y-79635988D02*
X65763517Y-80207417D01*
X65763517Y-79921703D02*
X64763517Y-79921703D01*
X64906375Y-80016941D01*
X65001613Y-80112179D01*
X65049232Y-80207417D01*
X65763517Y-79207417D02*
X64763517Y-79207417D01*
X65382565Y-79112179D02*
X65763517Y-78826464D01*
X65096851Y-78826464D02*
X65477803Y-79207417D01*
X66144470Y-78112179D02*
X66096851Y-78159798D01*
X65953994Y-78255036D01*
X65858756Y-78302655D01*
X65715898Y-78350274D01*
X65477803Y-78397893D01*
X65287327Y-78397893D01*
X65049232Y-78350274D01*
X64906375Y-78302655D01*
X64811137Y-78255036D01*
X64668279Y-78159798D01*
X64620660Y-78112179D01*
X64858756Y-77778845D02*
X64811137Y-77731226D01*
X64763517Y-77635988D01*
X64763517Y-77397893D01*
X64811137Y-77302655D01*
X64858756Y-77255036D01*
X64953994Y-77207417D01*
X65049232Y-77207417D01*
X65192089Y-77255036D01*
X65763517Y-77826464D01*
X65763517Y-77207417D01*
X66144470Y-76874084D02*
X66096851Y-76826464D01*
X65953994Y-76731226D01*
X65858756Y-76683607D01*
X65715898Y-76635988D01*
X65477803Y-76588369D01*
X65287327Y-76588369D01*
X65049232Y-76635988D01*
X64906375Y-76683607D01*
X64811137Y-76731226D01*
X64668279Y-76826464D01*
X64620660Y-76874084D01*
X35620325Y-72231359D02*
X35525087Y-72183739D01*
X35382230Y-72183739D01*
X35239372Y-72231359D01*
X35144134Y-72326597D01*
X35096515Y-72421835D01*
X35048896Y-72612311D01*
X35048896Y-72755168D01*
X35096515Y-72945644D01*
X35144134Y-73040882D01*
X35239372Y-73136120D01*
X35382230Y-73183739D01*
X35477468Y-73183739D01*
X35620325Y-73136120D01*
X35667944Y-73088501D01*
X35667944Y-72755168D01*
X35477468Y-72755168D01*
X36096515Y-73183739D02*
X36096515Y-72183739D01*
X36667944Y-73183739D01*
X36667944Y-72183739D01*
X37144134Y-73183739D02*
X37144134Y-72183739D01*
X37382230Y-72183739D01*
X37525087Y-72231359D01*
X37620325Y-72326597D01*
X37667944Y-72421835D01*
X37715563Y-72612311D01*
X37715563Y-72755168D01*
X37667944Y-72945644D01*
X37620325Y-73040882D01*
X37525087Y-73136120D01*
X37382230Y-73183739D01*
X37144134Y-73183739D01*
X73477619Y-67762380D02*
X74001428Y-67095714D01*
X73477619Y-67095714D02*
X74001428Y-67762380D01*
X74287142Y-66762380D02*
X74953809Y-66762380D01*
X74525238Y-67762380D01*
X75334761Y-67667142D02*
X75382380Y-67714761D01*
X75334761Y-67762380D01*
X75287142Y-67714761D01*
X75334761Y-67667142D01*
X75334761Y-67762380D01*
X75953809Y-67190952D02*
X75858571Y-67143333D01*
X75810952Y-67095714D01*
X75763333Y-67000476D01*
X75763333Y-66952857D01*
X75810952Y-66857619D01*
X75858571Y-66810000D01*
X75953809Y-66762380D01*
X76144285Y-66762380D01*
X76239523Y-66810000D01*
X76287142Y-66857619D01*
X76334761Y-66952857D01*
X76334761Y-67000476D01*
X76287142Y-67095714D01*
X76239523Y-67143333D01*
X76144285Y-67190952D01*
X75953809Y-67190952D01*
X75858571Y-67238571D01*
X75810952Y-67286190D01*
X75763333Y-67381428D01*
X75763333Y-67571904D01*
X75810952Y-67667142D01*
X75858571Y-67714761D01*
X75953809Y-67762380D01*
X76144285Y-67762380D01*
X76239523Y-67714761D01*
X76287142Y-67667142D01*
X76334761Y-67571904D01*
X76334761Y-67381428D01*
X76287142Y-67286190D01*
X76239523Y-67238571D01*
X76144285Y-67190952D01*
X74168095Y-80780000D02*
X74072857Y-80732380D01*
X73930000Y-80732380D01*
X73787142Y-80780000D01*
X73691904Y-80875238D01*
X73644285Y-80970476D01*
X73596666Y-81160952D01*
X73596666Y-81303809D01*
X73644285Y-81494285D01*
X73691904Y-81589523D01*
X73787142Y-81684761D01*
X73930000Y-81732380D01*
X74025238Y-81732380D01*
X74168095Y-81684761D01*
X74215714Y-81637142D01*
X74215714Y-81303809D01*
X74025238Y-81303809D01*
X74644285Y-81732380D02*
X74644285Y-80732380D01*
X75215714Y-81732380D01*
X75215714Y-80732380D01*
X75691904Y-81732380D02*
X75691904Y-80732380D01*
X75930000Y-80732380D01*
X76072857Y-80780000D01*
X76168095Y-80875238D01*
X76215714Y-80970476D01*
X76263333Y-81160952D01*
X76263333Y-81303809D01*
X76215714Y-81494285D01*
X76168095Y-81589523D01*
X76072857Y-81684761D01*
X75930000Y-81732380D01*
X75691904Y-81732380D01*
X53149523Y-50252380D02*
X52673333Y-50252380D01*
X52625714Y-50728571D01*
X52673333Y-50680952D01*
X52768571Y-50633333D01*
X53006666Y-50633333D01*
X53101904Y-50680952D01*
X53149523Y-50728571D01*
X53197142Y-50823809D01*
X53197142Y-51061904D01*
X53149523Y-51157142D01*
X53101904Y-51204761D01*
X53006666Y-51252380D01*
X52768571Y-51252380D01*
X52673333Y-51204761D01*
X52625714Y-51157142D01*
X53482857Y-50252380D02*
X53816190Y-51252380D01*
X54149523Y-50252380D01*
X51058088Y-78773235D02*
X51058088Y-79344664D01*
X51058088Y-79058949D02*
X50058088Y-79058949D01*
X50200946Y-79154188D01*
X50296184Y-79249426D01*
X50343803Y-79344664D01*
X51058088Y-78344664D02*
X50058088Y-78344664D01*
X50677136Y-78249426D02*
X51058088Y-77963711D01*
X50391422Y-77963711D02*
X50772374Y-78344664D01*
X54430515Y-60339639D02*
X53859086Y-60339639D01*
X54144801Y-60339639D02*
X54144801Y-59339639D01*
X54049562Y-59482497D01*
X53954324Y-59577735D01*
X53859086Y-59625354D01*
X55287658Y-59672973D02*
X55287658Y-60339639D01*
X54859086Y-59672973D02*
X54859086Y-60196782D01*
X54906705Y-60292020D01*
X55001943Y-60339639D01*
X55144801Y-60339639D01*
X55240039Y-60292020D01*
X55287658Y-60244401D01*
X53490758Y-76700476D02*
X53538377Y-76748095D01*
X53490758Y-76795714D01*
X53443139Y-76748095D01*
X53490758Y-76700476D01*
X53490758Y-76795714D01*
X53300282Y-75843334D02*
X53395520Y-75795714D01*
X53633615Y-75795714D01*
X53728853Y-75843334D01*
X53776472Y-75938572D01*
X53776472Y-76033810D01*
X53728853Y-76129048D01*
X53681234Y-76176667D01*
X53585996Y-76224286D01*
X53538377Y-76271905D01*
X53490758Y-76367143D01*
X53490758Y-76414762D01*
X54347901Y-76700476D02*
X54395520Y-76748095D01*
X54347901Y-76795714D01*
X54300282Y-76748095D01*
X54347901Y-76700476D01*
X54347901Y-76795714D01*
X54157425Y-75843334D02*
X54252663Y-75795714D01*
X54490758Y-75795714D01*
X54585996Y-75843334D01*
X54633615Y-75938572D01*
X54633615Y-76033810D01*
X54585996Y-76129048D01*
X54538377Y-76176667D01*
X54443139Y-76224286D01*
X54395520Y-76271905D01*
X54347901Y-76367143D01*
X54347901Y-76414762D01*
X40565396Y-64611216D02*
X39993967Y-64611216D01*
X40279682Y-64611216D02*
X40279682Y-63611216D01*
X40184443Y-63754074D01*
X40089205Y-63849312D01*
X39993967Y-63896931D01*
X41422539Y-63944550D02*
X41422539Y-64611216D01*
X40993967Y-63944550D02*
X40993967Y-64468359D01*
X41041586Y-64563597D01*
X41136824Y-64611216D01*
X41279682Y-64611216D01*
X41374920Y-64563597D01*
X41422539Y-64515978D01*
D11*
X56069534Y-65496051D02*
X56069534Y-71944051D01*
X56429534Y-65538051D02*
X56429534Y-67680051D01*
X57110534Y-65734051D02*
X57110534Y-67680051D01*
X57030534Y-65702051D02*
X57030534Y-67680051D01*
X56309534Y-69760051D02*
X56309534Y-71921051D01*
X57950534Y-66236051D02*
X57950534Y-67680051D01*
X55949534Y-65490051D02*
X55949534Y-71950051D01*
X57590534Y-69760051D02*
X57590534Y-71462051D01*
X57390534Y-65864051D02*
X57390534Y-67680051D01*
X57430534Y-69760051D02*
X57430534Y-71554051D01*
X55909534Y-65490051D02*
X55909534Y-71950051D01*
X58390534Y-66676051D02*
X58390534Y-70764051D01*
X57670534Y-69760051D02*
X57670534Y-71410051D01*
X58750534Y-67211051D02*
X58750534Y-70229051D01*
X58950534Y-67661051D02*
X58950534Y-69779051D01*
X59030534Y-67918051D02*
X59030534Y-69522051D01*
X58990534Y-67780051D02*
X58990534Y-69660051D01*
X57470534Y-65908051D02*
X57470534Y-67680051D01*
X57390534Y-69760051D02*
X57390534Y-71576051D01*
X55989534Y-65492051D02*
X55989534Y-71948051D01*
X56990534Y-65687051D02*
X56990534Y-67680051D01*
X56590534Y-65570051D02*
X56590534Y-67680051D01*
X56349534Y-69760051D02*
X56349534Y-71915051D01*
X57270534Y-65804051D02*
X57270534Y-67680051D01*
X56389534Y-69760051D02*
X56389534Y-71909051D01*
X57350534Y-69760051D02*
X57350534Y-71596051D01*
X58430534Y-66725051D02*
X58430534Y-70715051D01*
X56469534Y-69760051D02*
X56469534Y-71895051D01*
X56750534Y-65610051D02*
X56750534Y-67680051D01*
X57950534Y-69760051D02*
X57950534Y-71204051D01*
X58510534Y-66830051D02*
X58510534Y-70610051D01*
X56870534Y-65646051D02*
X56870534Y-67680051D01*
X57190534Y-65768051D02*
X57190534Y-67680051D01*
X56590534Y-69760051D02*
X56590534Y-71870051D01*
X56950534Y-65673051D02*
X56950534Y-67680051D01*
X57750534Y-66084051D02*
X57750534Y-67680051D01*
X56029534Y-65493051D02*
X56029534Y-71947051D01*
X57310534Y-65824051D02*
X57310534Y-67680051D01*
X56910534Y-69760051D02*
X56910534Y-71781051D01*
X56309534Y-65519051D02*
X56309534Y-67680051D01*
X57510534Y-69760051D02*
X57510534Y-71510051D01*
X56670534Y-69760051D02*
X56670534Y-71851051D01*
X56269534Y-69760051D02*
X56269534Y-71926051D01*
X58150534Y-69760051D02*
X58150534Y-71025051D01*
X56149534Y-65502051D02*
X56149534Y-67680051D01*
X56549534Y-65561051D02*
X56549534Y-67680051D01*
X57230534Y-69760051D02*
X57230534Y-71654051D01*
X56509534Y-65553051D02*
X56509534Y-67680051D01*
X57270534Y-69760051D02*
X57270534Y-71636051D01*
X56990534Y-69760051D02*
X56990534Y-71753051D01*
X59070534Y-68087051D02*
X59070534Y-69353051D01*
X57710534Y-66056051D02*
X57710534Y-67680051D01*
X58830534Y-67370051D02*
X58830534Y-70070051D01*
X58550534Y-66886051D02*
X58550534Y-70554051D01*
X58030534Y-66304051D02*
X58030534Y-67680051D01*
X58190534Y-66455051D02*
X58190534Y-70985051D01*
X56509534Y-69760051D02*
X56509534Y-71887051D01*
X58710534Y-67139051D02*
X58710534Y-70301051D01*
X58150534Y-66415051D02*
X58150534Y-67680051D01*
X57750534Y-69760051D02*
X57750534Y-71356051D01*
X56910534Y-65659051D02*
X56910534Y-67680051D01*
X52369293Y-66881051D02*
X52999293Y-66881051D01*
X57710534Y-69760051D02*
X57710534Y-71384051D01*
X57590534Y-65978051D02*
X57590534Y-67680051D01*
X56950534Y-69760051D02*
X56950534Y-71767051D01*
X57110534Y-69760051D02*
X57110534Y-71706051D01*
X56670534Y-65589051D02*
X56670534Y-67680051D01*
X57030534Y-69760051D02*
X57030534Y-71738051D01*
X56549534Y-69760051D02*
X56549534Y-71879051D01*
X56229534Y-69760051D02*
X56229534Y-71931051D01*
X58110534Y-66377051D02*
X58110534Y-67680051D01*
X57430534Y-65886051D02*
X57430534Y-67680051D01*
X58910534Y-67555051D02*
X58910534Y-69885051D01*
X57190534Y-69760051D02*
X57190534Y-71672051D01*
X57630534Y-66004051D02*
X57630534Y-67680051D01*
X58270534Y-66538051D02*
X58270534Y-70902051D01*
X56830534Y-65634051D02*
X56830534Y-67680051D01*
X57910534Y-69760051D02*
X57910534Y-71236051D01*
X56710534Y-65599051D02*
X56710534Y-67680051D01*
X56790534Y-65622051D02*
X56790534Y-67680051D01*
X58870534Y-67458051D02*
X58870534Y-69982051D01*
X57070534Y-65718051D02*
X57070534Y-67680051D01*
X56750534Y-69760051D02*
X56750534Y-71830051D01*
X57990534Y-66270051D02*
X57990534Y-67680051D01*
X57830534Y-66142051D02*
X57830534Y-67680051D01*
X57070534Y-69760051D02*
X57070534Y-71722051D01*
X56269534Y-65514051D02*
X56269534Y-67680051D01*
X58070534Y-69760051D02*
X58070534Y-71100051D01*
X57550534Y-69760051D02*
X57550534Y-71486051D01*
X59110534Y-68318051D02*
X59110534Y-69122051D01*
X57670534Y-66030051D02*
X57670534Y-67680051D01*
X56830534Y-69760051D02*
X56830534Y-71806051D01*
X56630534Y-65579051D02*
X56630534Y-67680051D01*
X57150534Y-65750051D02*
X57150534Y-67680051D01*
X56710534Y-69760051D02*
X56710534Y-71841051D01*
X57350534Y-65844051D02*
X57350534Y-67680051D01*
X56349534Y-65525051D02*
X56349534Y-67680051D01*
X56790534Y-69760051D02*
X56790534Y-71818051D01*
X56109534Y-65498051D02*
X56109534Y-67680051D01*
X56229534Y-65509051D02*
X56229534Y-67680051D01*
X57550534Y-65954051D02*
X57550534Y-67680051D01*
X57910534Y-66204051D02*
X57910534Y-67680051D01*
X56189534Y-69760051D02*
X56189534Y-71935051D01*
X57630534Y-69760051D02*
X57630534Y-71436051D01*
X58670534Y-67070051D02*
X58670534Y-70370051D01*
X58350534Y-66628051D02*
X58350534Y-70812051D01*
X58230534Y-66496051D02*
X58230534Y-70944051D01*
X57470534Y-69760051D02*
X57470534Y-71532051D01*
X58470534Y-66776051D02*
X58470534Y-70664051D01*
X56870534Y-69760051D02*
X56870534Y-71794051D01*
X57870534Y-66172051D02*
X57870534Y-67680051D01*
X56109534Y-69760051D02*
X56109534Y-71942051D01*
X56389534Y-65531051D02*
X56389534Y-67680051D01*
X58790534Y-67288051D02*
X58790534Y-70152051D01*
X58110534Y-69760051D02*
X58110534Y-71063051D01*
X57230534Y-65786051D02*
X57230534Y-67680051D01*
X55869534Y-65490051D02*
X55869534Y-71950051D01*
X58590534Y-66944051D02*
X58590534Y-70496051D01*
X56469534Y-65545051D02*
X56469534Y-67680051D01*
X56149534Y-69760051D02*
X56149534Y-71938051D01*
X57790534Y-66113051D02*
X57790534Y-67680051D01*
X57990534Y-69760051D02*
X57990534Y-71170051D01*
X58030534Y-69760051D02*
X58030534Y-71136051D01*
X56429534Y-69760051D02*
X56429534Y-71902051D01*
X57150534Y-69760051D02*
X57150534Y-71690051D01*
X58630534Y-67006051D02*
X58630534Y-70434051D01*
X58070534Y-66340051D02*
X58070534Y-67680051D01*
X56189534Y-65505051D02*
X56189534Y-67680051D01*
X56630534Y-69760051D02*
X56630534Y-71861051D01*
X57310534Y-69760051D02*
X57310534Y-71616051D01*
X52684293Y-66566051D02*
X52684293Y-67196051D01*
X57870534Y-69760051D02*
X57870534Y-71268051D01*
X58310534Y-66583051D02*
X58310534Y-70857051D01*
X57510534Y-65930051D02*
X57510534Y-67680051D01*
X57790534Y-69760051D02*
X57790534Y-71327051D01*
X57830534Y-69760051D02*
X57830534Y-71298051D01*
X59139534Y-68720051D02*
G75*
G03*
X59139534Y-68720051I-3270000J0D01*
G01*
X62211000Y-52070000D02*
G75*
G03*
X62211000Y-52070000I-1251000J0D01*
G01*
X61350000Y-64090000D02*
X61350000Y-67940000D01*
X65650000Y-66030000D02*
G75*
G03*
X64148807Y-63673600I-2600002J-2D01*
G01*
X64148807Y-68386400D02*
G75*
G03*
X65650000Y-66030000I-1098804J2356399D01*
G01*
X61927955Y-63707369D02*
G75*
G03*
X61350000Y-64090000I1122056J-2322647D01*
G01*
X61350000Y-67940000D02*
G75*
G03*
X61937736Y-68332383I1699985J1909979D01*
G01*
X76181000Y-55880000D02*
G75*
G03*
X76181000Y-55880000I-1251000J0D01*
G01*
X45950000Y-55481000D02*
X44574000Y-55481000D01*
X50076000Y-54281000D02*
X48030000Y-54281000D01*
X49474000Y-55401000D02*
X48030000Y-55401000D01*
X45950000Y-55081000D02*
X44274000Y-55081000D01*
X49034000Y-55841000D02*
X44946000Y-55841000D01*
X48571000Y-56161000D02*
X45409000Y-56161000D01*
X47792000Y-56481000D02*
X46188000Y-56481000D01*
X45950000Y-53680000D02*
X43779000Y-53680000D01*
X49802000Y-54921000D02*
X48030000Y-54921000D01*
X50100000Y-54201000D02*
X48030000Y-54201000D01*
X49370000Y-55521000D02*
X48030000Y-55521000D01*
X49538000Y-55321000D02*
X48030000Y-55321000D01*
X49680000Y-55121000D02*
X48030000Y-55121000D01*
X47623000Y-56521000D02*
X46357000Y-56521000D01*
X50051000Y-54361000D02*
X48030000Y-54361000D01*
X50201000Y-53680000D02*
X48030000Y-53680000D01*
X45950000Y-54801000D02*
X44114000Y-54801000D01*
X45950000Y-54241000D02*
X43892000Y-54241000D01*
X45950000Y-55161000D02*
X44326000Y-55161000D01*
X50037000Y-54401000D02*
X48030000Y-54401000D01*
X47930000Y-56441000D02*
X46050000Y-56441000D01*
X45950000Y-55121000D02*
X44300000Y-55121000D01*
X45950000Y-53600000D02*
X43772000Y-53600000D01*
X48880000Y-55961000D02*
X45100000Y-55961000D01*
X45950000Y-54961000D02*
X44200000Y-54961000D01*
X45950000Y-54841000D02*
X44134000Y-54841000D01*
X50220000Y-53400000D02*
X43760000Y-53400000D01*
X48499000Y-56201000D02*
X45481000Y-56201000D01*
X45950000Y-54041000D02*
X43840000Y-54041000D01*
X45950000Y-55521000D02*
X44610000Y-55521000D01*
X45950000Y-54521000D02*
X43988000Y-54521000D01*
X48704000Y-56081000D02*
X45276000Y-56081000D01*
X48934000Y-55921000D02*
X45046000Y-55921000D01*
X49886000Y-54761000D02*
X48030000Y-54761000D01*
X48049000Y-56401000D02*
X45931000Y-56401000D01*
X45950000Y-54361000D02*
X43929000Y-54361000D01*
X50185000Y-53800000D02*
X48030000Y-53800000D01*
X50111000Y-54161000D02*
X48030000Y-54161000D01*
X48252000Y-56321000D02*
X45728000Y-56321000D01*
X48640000Y-56121000D02*
X45340000Y-56121000D01*
X49706000Y-55081000D02*
X48030000Y-55081000D01*
X49732000Y-55041000D02*
X48030000Y-55041000D01*
X49440000Y-55441000D02*
X48030000Y-55441000D01*
X50165000Y-53920000D02*
X48030000Y-53920000D01*
X50220000Y-53320000D02*
X43760000Y-53320000D01*
X50212000Y-53560000D02*
X48030000Y-53560000D01*
X45950000Y-53960000D02*
X43823000Y-53960000D01*
X49172000Y-55721000D02*
X44808000Y-55721000D01*
X45950000Y-54721000D02*
X44074000Y-54721000D01*
X50064000Y-54321000D02*
X48030000Y-54321000D01*
X49506000Y-55361000D02*
X48030000Y-55361000D01*
X45950000Y-54161000D02*
X43869000Y-54161000D01*
X49824000Y-54881000D02*
X48030000Y-54881000D01*
X45950000Y-54481000D02*
X43972000Y-54481000D01*
X50088000Y-54241000D02*
X48030000Y-54241000D01*
X49756000Y-55001000D02*
X48030000Y-55001000D01*
X45950000Y-54401000D02*
X43943000Y-54401000D01*
X50149000Y-54000000D02*
X48030000Y-54000000D01*
X45950000Y-53560000D02*
X43768000Y-53560000D01*
X49333000Y-55561000D02*
X48030000Y-55561000D01*
X45950000Y-53720000D02*
X43784000Y-53720000D01*
X45950000Y-54561000D02*
X44004000Y-54561000D01*
X48155000Y-56361000D02*
X45825000Y-56361000D01*
X49976000Y-54561000D02*
X48030000Y-54561000D01*
X49942000Y-54641000D02*
X48030000Y-54641000D01*
X49906000Y-54721000D02*
X48030000Y-54721000D01*
X45950000Y-54761000D02*
X44094000Y-54761000D01*
X45950000Y-54921000D02*
X44178000Y-54921000D01*
X48985000Y-55881000D02*
X44995000Y-55881000D01*
X45950000Y-55601000D02*
X44685000Y-55601000D01*
X50140000Y-54041000D02*
X48030000Y-54041000D01*
X50179000Y-53840000D02*
X48030000Y-53840000D01*
X49127000Y-55761000D02*
X44853000Y-55761000D01*
X49214000Y-55681000D02*
X44766000Y-55681000D01*
X50157000Y-53960000D02*
X48030000Y-53960000D01*
X50220000Y-53360000D02*
X43760000Y-53360000D01*
X45950000Y-54601000D02*
X44020000Y-54601000D01*
X49406000Y-55481000D02*
X48030000Y-55481000D01*
X45950000Y-54201000D02*
X43880000Y-54201000D01*
X45950000Y-55401000D02*
X44506000Y-55401000D01*
X45950000Y-53920000D02*
X43815000Y-53920000D01*
X45950000Y-54641000D02*
X44038000Y-54641000D01*
X50131000Y-54081000D02*
X48030000Y-54081000D01*
X45950000Y-54441000D02*
X43957000Y-54441000D01*
X50208000Y-53600000D02*
X48030000Y-53600000D01*
X45950000Y-53840000D02*
X43801000Y-53840000D01*
X45950000Y-54121000D02*
X43859000Y-54121000D01*
X45950000Y-54321000D02*
X43916000Y-54321000D01*
X49295000Y-55601000D02*
X48030000Y-55601000D01*
X48824000Y-56001000D02*
X45156000Y-56001000D01*
X45950000Y-55441000D02*
X44540000Y-55441000D01*
X49960000Y-54601000D02*
X48030000Y-54601000D01*
X49780000Y-54961000D02*
X48030000Y-54961000D01*
X45950000Y-55241000D02*
X44383000Y-55241000D01*
X49626000Y-55201000D02*
X48030000Y-55201000D01*
X47392000Y-56561000D02*
X46588000Y-56561000D01*
X45950000Y-53800000D02*
X43795000Y-53800000D01*
X45950000Y-53880000D02*
X43808000Y-53880000D01*
X49255000Y-55641000D02*
X44725000Y-55641000D01*
X49144000Y-50134759D02*
X48514000Y-50134759D01*
X45950000Y-55041000D02*
X44248000Y-55041000D01*
X45950000Y-54681000D02*
X44056000Y-54681000D01*
X49924000Y-54681000D02*
X48030000Y-54681000D01*
X45950000Y-53760000D02*
X43789000Y-53760000D01*
X49846000Y-54841000D02*
X48030000Y-54841000D01*
X45950000Y-55281000D02*
X44412000Y-55281000D01*
X50214000Y-53520000D02*
X43766000Y-53520000D01*
X50023000Y-54441000D02*
X48030000Y-54441000D01*
X45950000Y-55201000D02*
X44354000Y-55201000D01*
X50008000Y-54481000D02*
X48030000Y-54481000D01*
X49082000Y-55801000D02*
X44898000Y-55801000D01*
X45950000Y-54881000D02*
X44156000Y-54881000D01*
X50217000Y-53480000D02*
X43763000Y-53480000D01*
X49654000Y-55161000D02*
X48030000Y-55161000D01*
X45950000Y-55561000D02*
X44647000Y-55561000D01*
X45950000Y-54000000D02*
X43831000Y-54000000D01*
X50205000Y-53640000D02*
X48030000Y-53640000D01*
X50191000Y-53760000D02*
X48030000Y-53760000D01*
X49866000Y-54801000D02*
X48030000Y-54801000D01*
X49568000Y-55281000D02*
X48030000Y-55281000D01*
X45950000Y-54281000D02*
X43904000Y-54281000D01*
X48766000Y-56041000D02*
X45214000Y-56041000D01*
X45950000Y-55001000D02*
X44224000Y-55001000D01*
X48340000Y-56281000D02*
X45640000Y-56281000D01*
X48422000Y-56241000D02*
X45558000Y-56241000D01*
X49992000Y-54521000D02*
X48030000Y-54521000D01*
X50172000Y-53880000D02*
X48030000Y-53880000D01*
X45950000Y-55321000D02*
X44442000Y-55321000D01*
X45950000Y-53640000D02*
X43775000Y-53640000D01*
X45950000Y-54081000D02*
X43849000Y-54081000D01*
X50196000Y-53720000D02*
X48030000Y-53720000D01*
X50121000Y-54121000D02*
X48030000Y-54121000D01*
X49597000Y-55241000D02*
X48030000Y-55241000D01*
X50218000Y-53440000D02*
X43762000Y-53440000D01*
X45950000Y-55361000D02*
X44474000Y-55361000D01*
X48829000Y-49819759D02*
X48829000Y-50449759D01*
X50260000Y-53320000D02*
G75*
G03*
X50260000Y-53320000I-3270000J0D01*
G01*
X71112982Y-80698322D02*
X70308982Y-80698322D01*
X73869982Y-78137322D02*
X71750982Y-78137322D01*
X69670982Y-79618322D02*
X68294982Y-79618322D01*
X69670982Y-79178322D02*
X67968982Y-79178322D01*
X73928982Y-77737322D02*
X71750982Y-77737322D01*
X72219982Y-80338322D02*
X69201982Y-80338322D01*
X73317982Y-79378322D02*
X71750982Y-79378322D01*
X72892982Y-79858322D02*
X68528982Y-79858322D01*
X69670982Y-79738322D02*
X68405982Y-79738322D01*
X72754982Y-79978322D02*
X68666982Y-79978322D01*
X73712982Y-78658322D02*
X71750982Y-78658322D01*
X73662982Y-78778322D02*
X71750982Y-78778322D01*
X73644982Y-78818322D02*
X71750982Y-78818322D01*
X73522982Y-79058322D02*
X71750982Y-79058322D01*
X69670982Y-78458322D02*
X67636982Y-78458322D01*
X73500982Y-79098322D02*
X71750982Y-79098322D01*
X73784982Y-78458322D02*
X71750982Y-78458322D01*
X69670982Y-79298322D02*
X68046982Y-79298322D01*
X73940982Y-77537322D02*
X67480982Y-77537322D01*
X73160982Y-79578322D02*
X71750982Y-79578322D01*
X72544982Y-80138322D02*
X68876982Y-80138322D01*
X73426982Y-79218322D02*
X71750982Y-79218322D01*
X71512982Y-80618322D02*
X69908982Y-80618322D01*
X69670982Y-78938322D02*
X67834982Y-78938322D01*
X73885982Y-78057322D02*
X71750982Y-78057322D01*
X72486982Y-80178322D02*
X68934982Y-80178322D01*
X69670982Y-78778322D02*
X67758982Y-78778322D01*
X69670982Y-77897322D02*
X67509982Y-77897322D01*
X72864982Y-74272081D02*
X72234982Y-74272081D01*
X69670982Y-78658322D02*
X67708982Y-78658322D01*
X73940982Y-77497322D02*
X67480982Y-77497322D01*
X73194982Y-79538322D02*
X71750982Y-79538322D01*
X73566982Y-78978322D02*
X71750982Y-78978322D01*
X69670982Y-79258322D02*
X68020982Y-79258322D01*
X72975982Y-79778322D02*
X68445982Y-79778322D01*
X73820982Y-78338322D02*
X71750982Y-78338322D01*
X69670982Y-79458322D02*
X68162982Y-79458322D01*
X69670982Y-78338322D02*
X67600982Y-78338322D01*
X69670982Y-78978322D02*
X67854982Y-78978322D01*
X73288982Y-79418322D02*
X71750982Y-79418322D01*
X69670982Y-79418322D02*
X68132982Y-79418322D01*
X73937982Y-77617322D02*
X67483982Y-77617322D01*
X69670982Y-78538322D02*
X67663982Y-78538322D01*
X69670982Y-79658322D02*
X68330982Y-79658322D01*
X73258982Y-79458322D02*
X71750982Y-79458322D01*
X73877982Y-78097322D02*
X71750982Y-78097322D01*
X69670982Y-78218322D02*
X67569982Y-78218322D01*
X69670982Y-78178322D02*
X67560982Y-78178322D01*
X73226982Y-79498322D02*
X71750982Y-79498322D01*
X73808982Y-78378322D02*
X71750982Y-78378322D01*
X69670982Y-78898322D02*
X67814982Y-78898322D01*
X73476982Y-79138322D02*
X71750982Y-79138322D01*
X72291982Y-80298322D02*
X69129982Y-80298322D01*
X69670982Y-78017322D02*
X67528982Y-78017322D01*
X69670982Y-78738322D02*
X67740982Y-78738322D01*
X69670982Y-78418322D02*
X67624982Y-78418322D01*
X73831982Y-78298322D02*
X71750982Y-78298322D01*
X71875982Y-80498322D02*
X69545982Y-80498322D01*
X72360982Y-80258322D02*
X69060982Y-80258322D01*
X73728982Y-78618322D02*
X71750982Y-78618322D01*
X69670982Y-77777322D02*
X67495982Y-77777322D01*
X69670982Y-77857322D02*
X67504982Y-77857322D01*
X73796982Y-78418322D02*
X71750982Y-78418322D01*
X69670982Y-78578322D02*
X67677982Y-78578322D01*
X73053982Y-79698322D02*
X71750982Y-79698322D01*
X69670982Y-78818322D02*
X67776982Y-78818322D01*
X73626982Y-78858322D02*
X71750982Y-78858322D01*
X73892982Y-78017322D02*
X71750982Y-78017322D01*
X69670982Y-79058322D02*
X67898982Y-79058322D01*
X73452982Y-79178322D02*
X71750982Y-79178322D01*
X69670982Y-77977322D02*
X67521982Y-77977322D01*
X73757982Y-78538322D02*
X71750982Y-78538322D01*
X72847982Y-79898322D02*
X68573982Y-79898322D01*
X73743982Y-78578322D02*
X71750982Y-78578322D01*
X73925982Y-77777322D02*
X71750982Y-77777322D01*
X69670982Y-78258322D02*
X67579982Y-78258322D01*
X69670982Y-79378322D02*
X68103982Y-79378322D01*
X73938982Y-77577322D02*
X67482982Y-77577322D01*
X72705982Y-80018322D02*
X68715982Y-80018322D01*
X72600982Y-80098322D02*
X68820982Y-80098322D01*
X73934982Y-77657322D02*
X67486982Y-77657322D01*
X69670982Y-78698322D02*
X67724982Y-78698322D01*
X73374982Y-79298322D02*
X71750982Y-79298322D01*
X73860982Y-78178322D02*
X71750982Y-78178322D01*
X73771982Y-78498322D02*
X71750982Y-78498322D01*
X69670982Y-79218322D02*
X67994982Y-79218322D01*
X73696982Y-78698322D02*
X71750982Y-78698322D01*
X71343982Y-80658322D02*
X70077982Y-80658322D01*
X73921982Y-77817322D02*
X71750982Y-77817322D01*
X72654982Y-80058322D02*
X68766982Y-80058322D01*
X73899982Y-77977322D02*
X71750982Y-77977322D01*
X73851982Y-78218322D02*
X71750982Y-78218322D01*
X69670982Y-79138322D02*
X67944982Y-79138322D01*
X69670982Y-77697322D02*
X67488982Y-77697322D01*
X73586982Y-78938322D02*
X71750982Y-78938322D01*
X71650982Y-80578322D02*
X69770982Y-80578322D01*
X69670982Y-79538322D02*
X68226982Y-79538322D01*
X71972982Y-80458322D02*
X69448982Y-80458322D01*
X73916982Y-77857322D02*
X71750982Y-77857322D01*
X69670982Y-78858322D02*
X67794982Y-78858322D01*
X69670982Y-79578322D02*
X68260982Y-79578322D01*
X72934982Y-79818322D02*
X68486982Y-79818322D01*
X69670982Y-78137322D02*
X67551982Y-78137322D01*
X72060982Y-80418322D02*
X69360982Y-80418322D01*
X73606982Y-78898322D02*
X71750982Y-78898322D01*
X73090982Y-79658322D02*
X71750982Y-79658322D01*
X69670982Y-79098322D02*
X67920982Y-79098322D01*
X69670982Y-77817322D02*
X67499982Y-77817322D01*
X73932982Y-77697322D02*
X71750982Y-77697322D01*
X73911982Y-77897322D02*
X71750982Y-77897322D01*
X73126982Y-79618322D02*
X71750982Y-79618322D01*
X69670982Y-78097322D02*
X67543982Y-78097322D01*
X73940982Y-77457322D02*
X67480982Y-77457322D01*
X73015982Y-79738322D02*
X71750982Y-79738322D01*
X72549982Y-73957081D02*
X72549982Y-74587081D01*
X69670982Y-78498322D02*
X67649982Y-78498322D01*
X73905982Y-77937322D02*
X71750982Y-77937322D01*
X72424982Y-80218322D02*
X68996982Y-80218322D01*
X69670982Y-77737322D02*
X67492982Y-77737322D01*
X69670982Y-78378322D02*
X67612982Y-78378322D01*
X69670982Y-78298322D02*
X67589982Y-78298322D01*
X73346982Y-79338322D02*
X71750982Y-79338322D01*
X69670982Y-77937322D02*
X67515982Y-77937322D01*
X69670982Y-78618322D02*
X67692982Y-78618322D01*
X69670982Y-78057322D02*
X67535982Y-78057322D01*
X69670982Y-79498322D02*
X68194982Y-79498322D01*
X73680982Y-78738322D02*
X71750982Y-78738322D01*
X72142982Y-80378322D02*
X69278982Y-80378322D01*
X69670982Y-79018322D02*
X67876982Y-79018322D01*
X69670982Y-79698322D02*
X68367982Y-79698322D01*
X73544982Y-79018322D02*
X71750982Y-79018322D01*
X72802982Y-79938322D02*
X68618982Y-79938322D01*
X71769982Y-80538322D02*
X69651982Y-80538322D01*
X73400982Y-79258322D02*
X71750982Y-79258322D01*
X73841982Y-78258322D02*
X71750982Y-78258322D01*
X69670982Y-79338322D02*
X68074982Y-79338322D01*
X73980982Y-77457322D02*
G75*
G03*
X73980982Y-77457322I-3270000J0D01*
G01*
X59645849Y-74116832D02*
X59645849Y-83356832D01*
X61365849Y-84046832D02*
X61365849Y-83356832D01*
X59645849Y-83356832D02*
X63085849Y-83356832D01*
X63085849Y-74116832D02*
X59645849Y-74116832D01*
X63085849Y-83356832D02*
X63085849Y-74116832D01*
X61365849Y-73426832D02*
X61365849Y-74116832D01*
X38560000Y-57970000D02*
X38560000Y-61410000D01*
X38560000Y-61410000D02*
X47800000Y-61410000D01*
X47800000Y-61410000D02*
X47800000Y-57970000D01*
X48490000Y-59690000D02*
X47800000Y-59690000D01*
X47800000Y-57970000D02*
X38560000Y-57970000D01*
X37870000Y-59690000D02*
X38560000Y-59690000D01*
X44803160Y-83322850D02*
X48243160Y-83322850D01*
X44803160Y-74082850D02*
X44803160Y-83322850D01*
X48243160Y-74082850D02*
X44803160Y-74082850D01*
X48243160Y-83322850D02*
X48243160Y-74082850D01*
X46523160Y-84012850D02*
X46523160Y-83322850D01*
X46523160Y-73392850D02*
X46523160Y-74082850D01*
X73345662Y-62888886D02*
X71399662Y-62888886D01*
X69319662Y-63528886D02*
X67723662Y-63528886D01*
X72843662Y-63728886D02*
X71399662Y-63728886D01*
X69319662Y-63248886D02*
X67547662Y-63248886D01*
X72249662Y-64288886D02*
X68469662Y-64288886D01*
X69319662Y-62207886D02*
X67177662Y-62207886D01*
X69319662Y-63648886D02*
X67811662Y-63648886D01*
X72809662Y-63768886D02*
X71399662Y-63768886D01*
X72541662Y-64048886D02*
X68177662Y-64048886D01*
X69319662Y-62327886D02*
X67200662Y-62327886D01*
X69319662Y-62287886D02*
X67192662Y-62287886D01*
X71418662Y-64728886D02*
X69300662Y-64728886D01*
X72135662Y-64368886D02*
X68583662Y-64368886D01*
X72907662Y-63648886D02*
X71399662Y-63648886D01*
X71709662Y-64608886D02*
X69009662Y-64608886D01*
X69319662Y-63288886D02*
X67569662Y-63288886D01*
X69319662Y-63488886D02*
X67695662Y-63488886D01*
X73589662Y-61647886D02*
X67129662Y-61647886D01*
X69319662Y-62928886D02*
X67389662Y-62928886D01*
X69319662Y-62688886D02*
X67298662Y-62688886D01*
X73075662Y-63408886D02*
X71399662Y-63408886D01*
X73392662Y-62768886D02*
X71399662Y-62768886D01*
X72583662Y-64008886D02*
X68135662Y-64008886D01*
X69319662Y-62127886D02*
X67164662Y-62127886D01*
X73526662Y-62287886D02*
X71399662Y-62287886D01*
X69319662Y-63368886D02*
X67617662Y-63368886D01*
X69319662Y-62968886D02*
X67407662Y-62968886D01*
X69319662Y-63328886D02*
X67593662Y-63328886D01*
X69319662Y-62408886D02*
X67218662Y-62408886D01*
X71940662Y-64488886D02*
X68778662Y-64488886D01*
X72739662Y-63848886D02*
X71399662Y-63848886D01*
X73235662Y-63128886D02*
X71399662Y-63128886D01*
X73275662Y-63048886D02*
X71399662Y-63048886D01*
X72966662Y-63568886D02*
X71399662Y-63568886D01*
X69319662Y-62047886D02*
X67153662Y-62047886D01*
X72303662Y-64248886D02*
X68415662Y-64248886D01*
X73457662Y-62568886D02*
X71399662Y-62568886D01*
X72073662Y-64408886D02*
X68645662Y-64408886D01*
X69319662Y-63448886D02*
X67669662Y-63448886D01*
X73565662Y-62047886D02*
X71399662Y-62047886D01*
X73574662Y-61967886D02*
X71399662Y-61967886D01*
X71299662Y-64768886D02*
X69419662Y-64768886D01*
X69319662Y-62648886D02*
X67285662Y-62648886D01*
X69319662Y-63408886D02*
X67643662Y-63408886D01*
X73577662Y-61927886D02*
X71399662Y-61927886D01*
X69319662Y-63728886D02*
X67875662Y-63728886D01*
X73554662Y-62127886D02*
X71399662Y-62127886D01*
X73541662Y-62207886D02*
X71399662Y-62207886D01*
X69319662Y-62167886D02*
X67170662Y-62167886D01*
X69319662Y-63048886D02*
X67443662Y-63048886D01*
X72775662Y-63808886D02*
X71399662Y-63808886D01*
X69319662Y-62608886D02*
X67273662Y-62608886D01*
X73583662Y-61847886D02*
X67135662Y-61847886D01*
X73293662Y-63008886D02*
X71399662Y-63008886D01*
X69319662Y-63808886D02*
X67943662Y-63808886D01*
X73534662Y-62247886D02*
X71399662Y-62247886D01*
X71791662Y-64568886D02*
X68927662Y-64568886D01*
X69319662Y-62368886D02*
X67209662Y-62368886D01*
X69319662Y-61927886D02*
X67141662Y-61927886D01*
X73548662Y-62167886D02*
X71399662Y-62167886D01*
X69319662Y-63768886D02*
X67909662Y-63768886D01*
X69319662Y-61967886D02*
X67144662Y-61967886D01*
X69319662Y-63168886D02*
X67503662Y-63168886D01*
X70992662Y-64848886D02*
X69726662Y-64848886D01*
X73311662Y-62968886D02*
X71399662Y-62968886D01*
X72937662Y-63608886D02*
X71399662Y-63608886D01*
X72198662Y-58147645D02*
X72198662Y-58777645D01*
X73171662Y-63248886D02*
X71399662Y-63248886D01*
X73255662Y-63088886D02*
X71399662Y-63088886D01*
X73581662Y-61887886D02*
X71399662Y-61887886D01*
X69319662Y-63568886D02*
X67752662Y-63568886D01*
X69319662Y-62888886D02*
X67373662Y-62888886D01*
X69319662Y-62848886D02*
X67357662Y-62848886D01*
X73469662Y-62528886D02*
X71399662Y-62528886D01*
X73570662Y-62007886D02*
X71399662Y-62007886D01*
X73215662Y-63168886D02*
X71399662Y-63168886D01*
X69319662Y-62808886D02*
X67341662Y-62808886D01*
X72875662Y-63688886D02*
X71399662Y-63688886D01*
X69319662Y-61887886D02*
X67137662Y-61887886D01*
X73377662Y-62808886D02*
X71399662Y-62808886D01*
X69319662Y-62728886D02*
X67312662Y-62728886D01*
X69319662Y-63088886D02*
X67463662Y-63088886D01*
X73420662Y-62688886D02*
X71399662Y-62688886D01*
X71524662Y-64688886D02*
X69194662Y-64688886D01*
X72403662Y-64168886D02*
X68315662Y-64168886D01*
X73589662Y-61687886D02*
X67129662Y-61687886D01*
X72193662Y-64328886D02*
X68525662Y-64328886D01*
X72354662Y-64208886D02*
X68364662Y-64208886D01*
X69319662Y-63928886D02*
X68054662Y-63928886D01*
X69319662Y-63848886D02*
X67979662Y-63848886D01*
X72513662Y-58462645D02*
X71883662Y-58462645D01*
X71621662Y-64648886D02*
X69097662Y-64648886D01*
X72496662Y-64088886D02*
X68222662Y-64088886D01*
X73125662Y-63328886D02*
X71399662Y-63328886D01*
X69319662Y-62768886D02*
X67326662Y-62768886D01*
X73193662Y-63208886D02*
X71399662Y-63208886D01*
X72995662Y-63528886D02*
X71399662Y-63528886D01*
X69319662Y-62007886D02*
X67148662Y-62007886D01*
X73518662Y-62327886D02*
X71399662Y-62327886D01*
X69319662Y-63888886D02*
X68016662Y-63888886D01*
X71161662Y-64808886D02*
X69557662Y-64808886D01*
X71868662Y-64528886D02*
X68850662Y-64528886D01*
X73049662Y-63448886D02*
X71399662Y-63448886D01*
X73445662Y-62608886D02*
X71399662Y-62608886D01*
X73329662Y-62928886D02*
X71399662Y-62928886D01*
X69319662Y-62528886D02*
X67249662Y-62528886D01*
X69319662Y-62448886D02*
X67228662Y-62448886D01*
X72624662Y-63968886D02*
X68094662Y-63968886D01*
X72702662Y-63888886D02*
X71399662Y-63888886D01*
X73433662Y-62648886D02*
X71399662Y-62648886D01*
X73587662Y-61767886D02*
X67131662Y-61767886D01*
X73101662Y-63368886D02*
X71399662Y-63368886D01*
X73560662Y-62087886D02*
X71399662Y-62087886D01*
X70761662Y-64888886D02*
X69957662Y-64888886D01*
X69319662Y-63608886D02*
X67781662Y-63608886D01*
X73509662Y-62368886D02*
X71399662Y-62368886D01*
X73023662Y-63488886D02*
X71399662Y-63488886D01*
X73149662Y-63288886D02*
X71399662Y-63288886D01*
X73589662Y-61727886D02*
X67129662Y-61727886D01*
X72451662Y-64128886D02*
X68267662Y-64128886D01*
X69319662Y-62247886D02*
X67184662Y-62247886D01*
X73361662Y-62848886D02*
X71399662Y-62848886D01*
X72009662Y-64448886D02*
X68709662Y-64448886D01*
X69319662Y-62087886D02*
X67158662Y-62087886D01*
X69319662Y-63208886D02*
X67525662Y-63208886D01*
X73490662Y-62448886D02*
X71399662Y-62448886D01*
X73406662Y-62728886D02*
X71399662Y-62728886D01*
X73480662Y-62488886D02*
X71399662Y-62488886D01*
X69319662Y-63688886D02*
X67843662Y-63688886D01*
X69319662Y-63008886D02*
X67425662Y-63008886D01*
X73586662Y-61807886D02*
X67132662Y-61807886D01*
X72664662Y-63928886D02*
X71399662Y-63928886D01*
X69319662Y-62568886D02*
X67261662Y-62568886D01*
X73500662Y-62408886D02*
X71399662Y-62408886D01*
X69319662Y-62488886D02*
X67238662Y-62488886D01*
X69319662Y-63128886D02*
X67483662Y-63128886D01*
X73629662Y-61647886D02*
G75*
G03*
X73629662Y-61647886I-3270000J0D01*
G01*
X37633230Y-66040000D02*
G75*
G03*
X37633230Y-66040000I-1251000J0D01*
G01*
X47380000Y-64090000D02*
X47380000Y-67940000D01*
X47957955Y-63707369D02*
G75*
G03*
X47380000Y-64090000I1122056J-2322647D01*
G01*
X50178807Y-68386400D02*
G75*
G03*
X51680000Y-66030000I-1098804J2356399D01*
G01*
X51680000Y-66030000D02*
G75*
G03*
X50178807Y-63673600I-2600002J-2D01*
G01*
X47380000Y-67940000D02*
G75*
G03*
X47967736Y-68332383I1699985J1909979D01*
G01*
X69275623Y-55880000D02*
X68585623Y-55880000D01*
X59345623Y-54160000D02*
X59345623Y-57600000D01*
X68585623Y-54160000D02*
X59345623Y-54160000D01*
X58655623Y-55880000D02*
X59345623Y-55880000D01*
X59345623Y-57600000D02*
X68585623Y-57600000D01*
X68585623Y-57600000D02*
X68585623Y-54160000D01*
X67090906Y-74116832D02*
X63650906Y-74116832D01*
X63650906Y-83356832D02*
X67090906Y-83356832D01*
X67090906Y-83356832D02*
X67090906Y-74116832D01*
X65370906Y-84046832D02*
X65370906Y-83356832D01*
X63650906Y-74116832D02*
X63650906Y-83356832D01*
X65370906Y-73426832D02*
X65370906Y-74116832D01*
X37633230Y-75271359D02*
G75*
G03*
X37633230Y-75271359I-1251000J0D01*
G01*
X76181000Y-69850000D02*
G75*
G03*
X76181000Y-69850000I-1251000J0D01*
G01*
X76181000Y-84147172D02*
G75*
G03*
X76181000Y-84147172I-1251000J0D01*
G01*
X57131000Y-52070000D02*
G75*
G03*
X57131000Y-52070000I-1251000J0D01*
G01*
X48817976Y-74082850D02*
X48817976Y-83322850D01*
X52257976Y-83322850D02*
X52257976Y-74082850D01*
X52257976Y-74082850D02*
X48817976Y-74082850D01*
X48817976Y-83322850D02*
X52257976Y-83322850D01*
X50537976Y-84012850D02*
X50537976Y-83322850D01*
X50537976Y-73392850D02*
X50537976Y-74082850D01*
X57430534Y-58976834D02*
X57430534Y-60770834D01*
X58590534Y-60034834D02*
X58590534Y-63586834D01*
X58070534Y-59430834D02*
X58070534Y-60770834D01*
X56509534Y-58643834D02*
X56509534Y-60770834D01*
X55949534Y-58580834D02*
X55949534Y-65040834D01*
X56349534Y-62850834D02*
X56349534Y-65005834D01*
X57830534Y-59232834D02*
X57830534Y-60770834D01*
X56710534Y-58689834D02*
X56710534Y-60770834D01*
X56990534Y-58777834D02*
X56990534Y-60770834D01*
X58950534Y-60751834D02*
X58950534Y-62869834D01*
X57590534Y-59068834D02*
X57590534Y-60770834D01*
X57030534Y-58792834D02*
X57030534Y-60770834D01*
X56509534Y-62850834D02*
X56509534Y-64977834D01*
X57190534Y-58858834D02*
X57190534Y-60770834D01*
X56429534Y-58628834D02*
X56429534Y-60770834D01*
X55989534Y-58582834D02*
X55989534Y-65038834D01*
X59030534Y-61008834D02*
X59030534Y-62612834D01*
X58030534Y-62850834D02*
X58030534Y-64226834D01*
X57110534Y-62850834D02*
X57110534Y-64796834D01*
X58110534Y-59467834D02*
X58110534Y-60770834D01*
X58030534Y-59394834D02*
X58030534Y-60770834D01*
X56950534Y-62850834D02*
X56950534Y-64857834D01*
X57710534Y-59146834D02*
X57710534Y-60770834D01*
X58750534Y-60301834D02*
X58750534Y-63319834D01*
X57230534Y-62850834D02*
X57230534Y-64744834D01*
X56870534Y-58736834D02*
X56870534Y-60770834D01*
X57150534Y-62850834D02*
X57150534Y-64780834D01*
X52684293Y-59656834D02*
X52684293Y-60286834D01*
X56109534Y-58588834D02*
X56109534Y-60770834D01*
X57790534Y-59203834D02*
X57790534Y-60770834D01*
X58470534Y-59866834D02*
X58470534Y-63754834D01*
X57070534Y-62850834D02*
X57070534Y-64812834D01*
X57390534Y-58954834D02*
X57390534Y-60770834D01*
X55869534Y-58580834D02*
X55869534Y-65040834D01*
X59110534Y-61408834D02*
X59110534Y-62212834D01*
X56830534Y-62850834D02*
X56830534Y-64896834D01*
X58430534Y-59815834D02*
X58430534Y-63805834D01*
X56309534Y-62850834D02*
X56309534Y-65011834D01*
X57950534Y-59326834D02*
X57950534Y-60770834D01*
X56269534Y-58604834D02*
X56269534Y-60770834D01*
X57230534Y-58876834D02*
X57230534Y-60770834D01*
X57190534Y-62850834D02*
X57190534Y-64762834D01*
X56590534Y-62850834D02*
X56590534Y-64960834D01*
X57310534Y-62850834D02*
X57310534Y-64706834D01*
X56109534Y-62850834D02*
X56109534Y-65032834D01*
X56389534Y-62850834D02*
X56389534Y-64999834D01*
X57510534Y-62850834D02*
X57510534Y-64600834D01*
X56429534Y-62850834D02*
X56429534Y-64992834D01*
X56870534Y-62850834D02*
X56870534Y-64884834D01*
X56790534Y-62850834D02*
X56790534Y-64908834D01*
X57630534Y-59094834D02*
X57630534Y-60770834D01*
X57350534Y-58934834D02*
X57350534Y-60770834D01*
X57390534Y-62850834D02*
X57390534Y-64666834D01*
X57270534Y-62850834D02*
X57270534Y-64726834D01*
X58550534Y-59976834D02*
X58550534Y-63644834D01*
X57550534Y-62850834D02*
X57550534Y-64576834D01*
X56830534Y-58724834D02*
X56830534Y-60770834D01*
X58310534Y-59673834D02*
X58310534Y-63947834D01*
X57430534Y-62850834D02*
X57430534Y-64644834D01*
X56790534Y-58712834D02*
X56790534Y-60770834D01*
X58270534Y-59628834D02*
X58270534Y-63992834D01*
X57470534Y-62850834D02*
X57470534Y-64622834D01*
X56910534Y-62850834D02*
X56910534Y-64871834D01*
X57350534Y-62850834D02*
X57350534Y-64686834D01*
X56309534Y-58609834D02*
X56309534Y-60770834D01*
X58870534Y-60548834D02*
X58870534Y-63072834D01*
X58790534Y-60378834D02*
X58790534Y-63242834D01*
X56069534Y-58586834D02*
X56069534Y-65034834D01*
X57710534Y-62850834D02*
X57710534Y-64474834D01*
X58830534Y-60460834D02*
X58830534Y-63160834D01*
X57910534Y-59294834D02*
X57910534Y-60770834D01*
X56549534Y-58651834D02*
X56549534Y-60770834D01*
X56189534Y-58595834D02*
X56189534Y-60770834D01*
X56670534Y-62850834D02*
X56670534Y-64941834D01*
X59070534Y-61177834D02*
X59070534Y-62443834D01*
X57150534Y-58840834D02*
X57150534Y-60770834D01*
X56149534Y-62850834D02*
X56149534Y-65028834D01*
X56710534Y-62850834D02*
X56710534Y-64931834D01*
X57870534Y-62850834D02*
X57870534Y-64358834D01*
X58350534Y-59718834D02*
X58350534Y-63902834D01*
X56389534Y-58621834D02*
X56389534Y-60770834D01*
X56229534Y-58599834D02*
X56229534Y-60770834D01*
X58190534Y-59545834D02*
X58190534Y-64075834D01*
X58110534Y-62850834D02*
X58110534Y-64153834D01*
X57990534Y-62850834D02*
X57990534Y-64260834D01*
X56029534Y-58583834D02*
X56029534Y-65037834D01*
X57990534Y-59360834D02*
X57990534Y-60770834D01*
X57630534Y-62850834D02*
X57630534Y-64526834D01*
X56670534Y-58679834D02*
X56670534Y-60770834D01*
X57910534Y-62850834D02*
X57910534Y-64326834D01*
X56590534Y-58660834D02*
X56590534Y-60770834D01*
X57830534Y-62850834D02*
X57830534Y-64388834D01*
X57470534Y-58998834D02*
X57470534Y-60770834D01*
X58710534Y-60229834D02*
X58710534Y-63391834D01*
X58990534Y-60870834D02*
X58990534Y-62750834D01*
X58510534Y-59920834D02*
X58510534Y-63700834D01*
X56750534Y-58700834D02*
X56750534Y-60770834D01*
X56189534Y-62850834D02*
X56189534Y-65025834D01*
X58150534Y-62850834D02*
X58150534Y-64115834D01*
X57750534Y-62850834D02*
X57750534Y-64446834D01*
X56229534Y-62850834D02*
X56229534Y-65021834D01*
X56469534Y-58635834D02*
X56469534Y-60770834D01*
X57070534Y-58808834D02*
X57070534Y-60770834D01*
X56349534Y-58615834D02*
X56349534Y-60770834D01*
X56269534Y-62850834D02*
X56269534Y-65016834D01*
X56950534Y-58763834D02*
X56950534Y-60770834D01*
X57590534Y-62850834D02*
X57590534Y-64552834D01*
X56910534Y-58749834D02*
X56910534Y-60770834D01*
X57670534Y-62850834D02*
X57670534Y-64500834D01*
X57870534Y-59262834D02*
X57870534Y-60770834D01*
X57310534Y-58914834D02*
X57310534Y-60770834D01*
X57110534Y-58824834D02*
X57110534Y-60770834D01*
X58630534Y-60096834D02*
X58630534Y-63524834D01*
X57270534Y-58894834D02*
X57270534Y-60770834D01*
X56149534Y-58592834D02*
X56149534Y-60770834D01*
X57950534Y-62850834D02*
X57950534Y-64294834D01*
X56549534Y-62850834D02*
X56549534Y-64969834D01*
X52369293Y-59971834D02*
X52999293Y-59971834D01*
X56630534Y-62850834D02*
X56630534Y-64951834D01*
X56630534Y-58669834D02*
X56630534Y-60770834D01*
X55909534Y-58580834D02*
X55909534Y-65040834D01*
X58070534Y-62850834D02*
X58070534Y-64190834D01*
X57750534Y-59174834D02*
X57750534Y-60770834D01*
X56990534Y-62850834D02*
X56990534Y-64843834D01*
X58910534Y-60645834D02*
X58910534Y-62975834D01*
X58670534Y-60160834D02*
X58670534Y-63460834D01*
X58390534Y-59766834D02*
X58390534Y-63854834D01*
X56469534Y-62850834D02*
X56469534Y-64985834D01*
X57550534Y-59044834D02*
X57550534Y-60770834D01*
X58230534Y-59586834D02*
X58230534Y-64034834D01*
X57670534Y-59120834D02*
X57670534Y-60770834D01*
X58150534Y-59505834D02*
X58150534Y-60770834D01*
X56750534Y-62850834D02*
X56750534Y-64920834D01*
X57510534Y-59020834D02*
X57510534Y-60770834D01*
X57030534Y-62850834D02*
X57030534Y-64828834D01*
X57790534Y-62850834D02*
X57790534Y-64417834D01*
X59139534Y-61810834D02*
G75*
G03*
X59139534Y-61810834I-3270000J0D01*
G01*
X58207773Y-79858322D02*
X53843773Y-79858322D01*
X59255773Y-77497322D02*
X52795773Y-77497322D01*
X54985773Y-78017322D02*
X52843773Y-78017322D01*
X54985773Y-79138322D02*
X53259773Y-79138322D01*
X58767773Y-79178322D02*
X57065773Y-79178322D01*
X56965773Y-80578322D02*
X55085773Y-80578322D01*
X54985773Y-77937322D02*
X52830773Y-77937322D01*
X54985773Y-77777322D02*
X52810773Y-77777322D01*
X59231773Y-77857322D02*
X57065773Y-77857322D01*
X54985773Y-79698322D02*
X53682773Y-79698322D01*
X54985773Y-78498322D02*
X52964773Y-78498322D01*
X54985773Y-78137322D02*
X52866773Y-78137322D01*
X54985773Y-78178322D02*
X52875773Y-78178322D01*
X59226773Y-77897322D02*
X57065773Y-77897322D01*
X58715773Y-79258322D02*
X57065773Y-79258322D01*
X54985773Y-79178322D02*
X53283773Y-79178322D01*
X59243773Y-77737322D02*
X57065773Y-77737322D01*
X54985773Y-79738322D02*
X53720773Y-79738322D01*
X58405773Y-79658322D02*
X57065773Y-79658322D01*
X54985773Y-78538322D02*
X52978773Y-78538322D01*
X54985773Y-79378322D02*
X53418773Y-79378322D01*
X58741773Y-79218322D02*
X57065773Y-79218322D01*
X57375773Y-80418322D02*
X54675773Y-80418322D01*
X58179773Y-74272081D02*
X57549773Y-74272081D01*
X58941773Y-78858322D02*
X57065773Y-78858322D01*
X56427773Y-80698322D02*
X55623773Y-80698322D01*
X54985773Y-78858322D02*
X53109773Y-78858322D01*
X54985773Y-79538322D02*
X53541773Y-79538322D01*
X57534773Y-80338322D02*
X54516773Y-80338322D01*
X59027773Y-78658322D02*
X57065773Y-78658322D01*
X54985773Y-78618322D02*
X53007773Y-78618322D01*
X57864773Y-73957081D02*
X57864773Y-74587081D01*
X54985773Y-79578322D02*
X53575773Y-79578322D01*
X58330773Y-79738322D02*
X57065773Y-79738322D01*
X54985773Y-77737322D02*
X52807773Y-77737322D01*
X59146773Y-78298322D02*
X57065773Y-78298322D01*
X58632773Y-79378322D02*
X57065773Y-79378322D01*
X59011773Y-78698322D02*
X57065773Y-78698322D01*
X58475773Y-79578322D02*
X57065773Y-79578322D01*
X56827773Y-80618322D02*
X55223773Y-80618322D01*
X59255773Y-77457322D02*
X52795773Y-77457322D01*
X58603773Y-79418322D02*
X57065773Y-79418322D01*
X54985773Y-78097322D02*
X52858773Y-78097322D01*
X54985773Y-79218322D02*
X53309773Y-79218322D01*
X57457773Y-80378322D02*
X54593773Y-80378322D01*
X59247773Y-77697322D02*
X57065773Y-77697322D01*
X54985773Y-79298322D02*
X53361773Y-79298322D01*
X58069773Y-79978322D02*
X53981773Y-79978322D01*
X54985773Y-78218322D02*
X52884773Y-78218322D01*
X58020773Y-80018322D02*
X54030773Y-80018322D01*
X56658773Y-80658322D02*
X55392773Y-80658322D01*
X54985773Y-78338322D02*
X52915773Y-78338322D01*
X54985773Y-79258322D02*
X53335773Y-79258322D01*
X59200773Y-78057322D02*
X57065773Y-78057322D01*
X58689773Y-79298322D02*
X57065773Y-79298322D01*
X57287773Y-80458322D02*
X54763773Y-80458322D01*
X54985773Y-78698322D02*
X53039773Y-78698322D01*
X59253773Y-77577322D02*
X52797773Y-77577322D01*
X59249773Y-77657322D02*
X52801773Y-77657322D01*
X58368773Y-79698322D02*
X57065773Y-79698322D01*
X58117773Y-79938322D02*
X53933773Y-79938322D01*
X58249773Y-79818322D02*
X53801773Y-79818322D01*
X57606773Y-80298322D02*
X54444773Y-80298322D01*
X58837773Y-79058322D02*
X57065773Y-79058322D01*
X54985773Y-78978322D02*
X53169773Y-78978322D01*
X59111773Y-78418322D02*
X57065773Y-78418322D01*
X54985773Y-79018322D02*
X53191773Y-79018322D01*
X57084773Y-80538322D02*
X54966773Y-80538322D01*
X54985773Y-78258322D02*
X52894773Y-78258322D01*
X57801773Y-80178322D02*
X54249773Y-80178322D01*
X58881773Y-78978322D02*
X57065773Y-78978322D01*
X54985773Y-78898322D02*
X53129773Y-78898322D01*
X59175773Y-78178322D02*
X57065773Y-78178322D01*
X57190773Y-80498322D02*
X54860773Y-80498322D01*
X54985773Y-78298322D02*
X52904773Y-78298322D01*
X54985773Y-79498322D02*
X53509773Y-79498322D01*
X59184773Y-78137322D02*
X57065773Y-78137322D01*
X54985773Y-78418322D02*
X52939773Y-78418322D01*
X59135773Y-78338322D02*
X57065773Y-78338322D01*
X58995773Y-78738322D02*
X57065773Y-78738322D01*
X54985773Y-79418322D02*
X53447773Y-79418322D01*
X58290773Y-79778322D02*
X53760773Y-79778322D01*
X54985773Y-78778322D02*
X53073773Y-78778322D01*
X57969773Y-80058322D02*
X54081773Y-80058322D01*
X59123773Y-78378322D02*
X57065773Y-78378322D01*
X54985773Y-79058322D02*
X53213773Y-79058322D01*
X54985773Y-78738322D02*
X53055773Y-78738322D01*
X57859773Y-80138322D02*
X54191773Y-80138322D01*
X58541773Y-79498322D02*
X57065773Y-79498322D01*
X58791773Y-79138322D02*
X57065773Y-79138322D01*
X54985773Y-78938322D02*
X53149773Y-78938322D01*
X54985773Y-78578322D02*
X52992773Y-78578322D01*
X58921773Y-78898322D02*
X57065773Y-78898322D01*
X59099773Y-78458322D02*
X57065773Y-78458322D01*
X54985773Y-77857322D02*
X52819773Y-77857322D01*
X58441773Y-79618322D02*
X57065773Y-79618322D01*
X59086773Y-78498322D02*
X57065773Y-78498322D01*
X58977773Y-78778322D02*
X57065773Y-78778322D01*
X59255773Y-77537322D02*
X52795773Y-77537322D01*
X54985773Y-78378322D02*
X52927773Y-78378322D01*
X54985773Y-78818322D02*
X53091773Y-78818322D01*
X59252773Y-77617322D02*
X52798773Y-77617322D01*
X59058773Y-78578322D02*
X57065773Y-78578322D01*
X54985773Y-79338322D02*
X53389773Y-79338322D01*
X59072773Y-78538322D02*
X57065773Y-78538322D01*
X58815773Y-79098322D02*
X57065773Y-79098322D01*
X54985773Y-77897322D02*
X52824773Y-77897322D01*
X58661773Y-79338322D02*
X57065773Y-79338322D01*
X54985773Y-78458322D02*
X52951773Y-78458322D01*
X59207773Y-78017322D02*
X57065773Y-78017322D01*
X57675773Y-80258322D02*
X54375773Y-80258322D01*
X59236773Y-77817322D02*
X57065773Y-77817322D01*
X58959773Y-78818322D02*
X57065773Y-78818322D01*
X58509773Y-79538322D02*
X57065773Y-79538322D01*
X58901773Y-78938322D02*
X57065773Y-78938322D01*
X58859773Y-79018322D02*
X57065773Y-79018322D01*
X58573773Y-79458322D02*
X57065773Y-79458322D01*
X54985773Y-78057322D02*
X52850773Y-78057322D01*
X59043773Y-78618322D02*
X57065773Y-78618322D01*
X54985773Y-79658322D02*
X53645773Y-79658322D01*
X54985773Y-78658322D02*
X53023773Y-78658322D01*
X59156773Y-78258322D02*
X57065773Y-78258322D01*
X59192773Y-78097322D02*
X57065773Y-78097322D01*
X54985773Y-79458322D02*
X53477773Y-79458322D01*
X54985773Y-77977322D02*
X52836773Y-77977322D01*
X59240773Y-77777322D02*
X57065773Y-77777322D01*
X54985773Y-77817322D02*
X52814773Y-77817322D01*
X57915773Y-80098322D02*
X54135773Y-80098322D01*
X54985773Y-79618322D02*
X53609773Y-79618322D01*
X57739773Y-80218322D02*
X54311773Y-80218322D01*
X59220773Y-77937322D02*
X57065773Y-77937322D01*
X58162773Y-79898322D02*
X53888773Y-79898322D01*
X59166773Y-78218322D02*
X57065773Y-78218322D01*
X54985773Y-79098322D02*
X53235773Y-79098322D01*
X59214773Y-77977322D02*
X57065773Y-77977322D01*
X54985773Y-77697322D02*
X52803773Y-77697322D01*
X59295773Y-77457322D02*
G75*
G03*
X59295773Y-77457322I-3270000J0D01*
G01*
X41890000Y-62810000D02*
X41890000Y-69270000D01*
X42611000Y-67080000D02*
X42611000Y-69190000D01*
X44811000Y-64608000D02*
X44811000Y-67472000D01*
X44011000Y-67080000D02*
X44011000Y-68490000D01*
X44051000Y-67080000D02*
X44051000Y-68456000D01*
X38389759Y-64201000D02*
X39019759Y-64201000D01*
X43891000Y-67080000D02*
X43891000Y-68588000D01*
X44331000Y-63903000D02*
X44331000Y-68177000D01*
X43851000Y-67080000D02*
X43851000Y-68618000D01*
X42851000Y-67080000D02*
X42851000Y-69126000D01*
X43731000Y-67080000D02*
X43731000Y-68704000D01*
X44371000Y-63948000D02*
X44371000Y-68132000D01*
X44411000Y-63996000D02*
X44411000Y-68084000D01*
X44291000Y-63858000D02*
X44291000Y-68222000D01*
X42651000Y-62899000D02*
X42651000Y-65000000D01*
X43651000Y-63324000D02*
X43651000Y-65000000D01*
X43291000Y-63124000D02*
X43291000Y-65000000D01*
X44131000Y-67080000D02*
X44131000Y-68383000D01*
X42771000Y-67080000D02*
X42771000Y-69150000D01*
X43931000Y-67080000D02*
X43931000Y-68556000D01*
X44451000Y-64045000D02*
X44451000Y-68035000D01*
X43011000Y-67080000D02*
X43011000Y-69073000D01*
X44571000Y-64206000D02*
X44571000Y-67874000D01*
X44651000Y-64326000D02*
X44651000Y-67754000D01*
X44851000Y-64690000D02*
X44851000Y-67390000D01*
X43531000Y-63250000D02*
X43531000Y-65000000D01*
X42170000Y-62822000D02*
X42170000Y-65000000D01*
X43531000Y-67080000D02*
X43531000Y-68830000D01*
X42931000Y-67080000D02*
X42931000Y-69101000D01*
X44531000Y-64150000D02*
X44531000Y-67930000D01*
X42450000Y-67080000D02*
X42450000Y-69222000D01*
X42250000Y-62829000D02*
X42250000Y-65000000D01*
X42851000Y-62954000D02*
X42851000Y-65000000D01*
X45131000Y-65638000D02*
X45131000Y-66442000D01*
X42731000Y-62919000D02*
X42731000Y-65000000D01*
X44891000Y-64778000D02*
X44891000Y-67302000D01*
X43291000Y-67080000D02*
X43291000Y-68956000D01*
X43331000Y-67080000D02*
X43331000Y-68936000D01*
X42290000Y-67080000D02*
X42290000Y-69246000D01*
X43411000Y-67080000D02*
X43411000Y-68896000D01*
X43611000Y-63298000D02*
X43611000Y-65000000D01*
X42530000Y-67080000D02*
X42530000Y-69207000D01*
X43611000Y-67080000D02*
X43611000Y-68782000D01*
X42090000Y-62816000D02*
X42090000Y-69264000D01*
X42811000Y-62942000D02*
X42811000Y-65000000D01*
X42050000Y-62813000D02*
X42050000Y-69267000D01*
X43091000Y-67080000D02*
X43091000Y-69042000D01*
X43051000Y-67080000D02*
X43051000Y-69058000D01*
X42771000Y-62930000D02*
X42771000Y-65000000D01*
X42450000Y-62858000D02*
X42450000Y-65000000D01*
X43211000Y-63088000D02*
X43211000Y-65000000D01*
X42250000Y-67080000D02*
X42250000Y-69251000D01*
X42570000Y-67080000D02*
X42570000Y-69199000D01*
X43971000Y-63556000D02*
X43971000Y-65000000D01*
X44131000Y-63697000D02*
X44131000Y-65000000D01*
X44691000Y-64390000D02*
X44691000Y-67690000D01*
X43891000Y-63492000D02*
X43891000Y-65000000D01*
X43171000Y-63070000D02*
X43171000Y-65000000D01*
X42490000Y-67080000D02*
X42490000Y-69215000D01*
X43811000Y-67080000D02*
X43811000Y-68647000D01*
X42611000Y-62890000D02*
X42611000Y-65000000D01*
X43691000Y-63350000D02*
X43691000Y-65000000D01*
X43851000Y-63462000D02*
X43851000Y-65000000D01*
X43131000Y-67080000D02*
X43131000Y-69026000D01*
X43731000Y-63376000D02*
X43731000Y-65000000D01*
X42691000Y-62909000D02*
X42691000Y-65000000D01*
X44171000Y-67080000D02*
X44171000Y-68345000D01*
X43571000Y-67080000D02*
X43571000Y-68806000D01*
X42971000Y-67080000D02*
X42971000Y-69087000D01*
X43571000Y-63274000D02*
X43571000Y-65000000D01*
X44771000Y-64531000D02*
X44771000Y-67549000D01*
X43091000Y-63038000D02*
X43091000Y-65000000D01*
X43051000Y-63022000D02*
X43051000Y-65000000D01*
X42891000Y-62966000D02*
X42891000Y-65000000D01*
X44171000Y-63735000D02*
X44171000Y-65000000D01*
X42170000Y-67080000D02*
X42170000Y-69258000D01*
X42811000Y-67080000D02*
X42811000Y-69138000D01*
X43331000Y-63144000D02*
X43331000Y-65000000D01*
X42931000Y-62979000D02*
X42931000Y-65000000D01*
X42731000Y-67080000D02*
X42731000Y-69161000D01*
X42330000Y-62839000D02*
X42330000Y-65000000D01*
X43771000Y-63404000D02*
X43771000Y-65000000D01*
X43651000Y-67080000D02*
X43651000Y-68756000D01*
X42010000Y-62812000D02*
X42010000Y-69268000D01*
X42210000Y-67080000D02*
X42210000Y-69255000D01*
X42530000Y-62873000D02*
X42530000Y-65000000D01*
X42130000Y-67080000D02*
X42130000Y-69262000D01*
X45011000Y-65100000D02*
X45011000Y-66980000D01*
X43011000Y-63007000D02*
X43011000Y-65000000D01*
X44731000Y-64459000D02*
X44731000Y-67621000D01*
X42210000Y-62825000D02*
X42210000Y-65000000D01*
X44091000Y-67080000D02*
X44091000Y-68420000D01*
X42330000Y-67080000D02*
X42330000Y-69241000D01*
X43171000Y-67080000D02*
X43171000Y-69010000D01*
X42971000Y-62993000D02*
X42971000Y-65000000D01*
X43371000Y-63164000D02*
X43371000Y-65000000D01*
X42370000Y-62845000D02*
X42370000Y-65000000D01*
X44491000Y-64096000D02*
X44491000Y-67984000D01*
X43971000Y-67080000D02*
X43971000Y-68524000D01*
X44971000Y-64981000D02*
X44971000Y-67099000D01*
X43411000Y-63184000D02*
X43411000Y-65000000D01*
X44251000Y-63816000D02*
X44251000Y-68264000D01*
X45091000Y-65407000D02*
X45091000Y-66673000D01*
X43371000Y-67080000D02*
X43371000Y-68916000D01*
X43811000Y-63433000D02*
X43811000Y-65000000D01*
X42410000Y-67080000D02*
X42410000Y-69229000D01*
X42651000Y-67080000D02*
X42651000Y-69181000D01*
X42130000Y-62818000D02*
X42130000Y-65000000D01*
X42691000Y-67080000D02*
X42691000Y-69171000D01*
X43251000Y-67080000D02*
X43251000Y-68974000D01*
X43251000Y-63106000D02*
X43251000Y-65000000D01*
X43131000Y-63054000D02*
X43131000Y-65000000D01*
X43491000Y-67080000D02*
X43491000Y-68852000D01*
X43211000Y-67080000D02*
X43211000Y-68992000D01*
X44931000Y-64875000D02*
X44931000Y-67205000D01*
X44611000Y-64264000D02*
X44611000Y-67816000D01*
X43931000Y-63524000D02*
X43931000Y-65000000D01*
X43691000Y-67080000D02*
X43691000Y-68730000D01*
X42370000Y-67080000D02*
X42370000Y-69235000D01*
X41930000Y-62810000D02*
X41930000Y-69270000D01*
X43451000Y-63206000D02*
X43451000Y-65000000D01*
X43491000Y-63228000D02*
X43491000Y-65000000D01*
X44011000Y-63590000D02*
X44011000Y-65000000D01*
X44091000Y-63660000D02*
X44091000Y-65000000D01*
X42570000Y-62881000D02*
X42570000Y-65000000D01*
X42410000Y-62851000D02*
X42410000Y-65000000D01*
X43771000Y-67080000D02*
X43771000Y-68676000D01*
X42290000Y-62834000D02*
X42290000Y-65000000D01*
X44051000Y-63624000D02*
X44051000Y-65000000D01*
X43451000Y-67080000D02*
X43451000Y-68874000D01*
X42490000Y-62865000D02*
X42490000Y-65000000D01*
X41970000Y-62810000D02*
X41970000Y-69270000D01*
X42891000Y-67080000D02*
X42891000Y-69114000D01*
X38704759Y-63886000D02*
X38704759Y-64516000D01*
X44211000Y-63775000D02*
X44211000Y-68305000D01*
X45051000Y-65238000D02*
X45051000Y-66842000D01*
X45160000Y-66040000D02*
G75*
G03*
X45160000Y-66040000I-3270000J0D01*
G01*
%LPC*%
D12*
X54619534Y-68720051D03*
D13*
X57119534Y-68720051D03*
D14*
X60960000Y-52070000D03*
D15*
X63050000Y-63490000D03*
D16*
X63050000Y-66030000D03*
X63050000Y-68570000D03*
D14*
X74930000Y-55880000D03*
D12*
X46990000Y-52070000D03*
D13*
X46990000Y-54570000D03*
D12*
X70710982Y-76207322D03*
D13*
X70710982Y-78707322D03*
D17*
X38100000Y-53340000D03*
D13*
X61365849Y-72386832D03*
D18*
X61365849Y-85086832D03*
D13*
X49530000Y-59690000D03*
D18*
X36830000Y-59690000D03*
D13*
X46523160Y-72352850D03*
D18*
X46523160Y-85052850D03*
D12*
X70359662Y-60397886D03*
D13*
X70359662Y-62897886D03*
D14*
X36382230Y-66040000D03*
D15*
X49080000Y-63490000D03*
D16*
X49080000Y-66030000D03*
X49080000Y-68570000D03*
D17*
X38100000Y-83820000D03*
D13*
X57615623Y-55880000D03*
D18*
X70315623Y-55880000D03*
D13*
X65370906Y-72386832D03*
D18*
X65370906Y-85086832D03*
D14*
X36382230Y-75271359D03*
X74930000Y-69850000D03*
X74930000Y-84147172D03*
X55880000Y-52070000D03*
D13*
X50537976Y-72352850D03*
D18*
X50537976Y-85052850D03*
D12*
X54619534Y-61810834D03*
D13*
X57119534Y-61810834D03*
D12*
X56025773Y-76207322D03*
D13*
X56025773Y-78707322D03*
D12*
X40640000Y-66040000D03*
D13*
X43140000Y-66040000D03*
M02*
