%TF.GenerationSoftware,KiCad,Pcbnew,(6.0.0)*%
%TF.CreationDate,2023-03-17T17:00:08+09:00*%
%TF.ProjectId,2sk117 amplifier,32736b31-3137-4206-916d-706c69666965,rev?*%
%TF.SameCoordinates,Original*%
%TF.FileFunction,Soldermask,Top*%
%TF.FilePolarity,Negative*%
%FSLAX46Y46*%
G04 Gerber Fmt 4.6, Leading zero omitted, Abs format (unit mm)*
G04 Created by KiCad (PCBNEW (6.0.0)) date 2023-03-17 17:00:08*
%MOMM*%
%LPD*%
G01*
G04 APERTURE LIST*
%ADD10R,1.600000X1.600000*%
%ADD11C,1.600000*%
%ADD12C,2.000000*%
%ADD13R,1.500000X1.500000*%
%ADD14C,1.500000*%
%ADD15C,3.200000*%
%ADD16O,1.600000X1.600000*%
G04 APERTURE END LIST*
D10*
X54619534Y-68720051D03*
D11*
X57119534Y-68720051D03*
D12*
X60960000Y-52070000D03*
D13*
X63050000Y-63490000D03*
D14*
X63050000Y-66030000D03*
X63050000Y-68570000D03*
D12*
X74930000Y-55880000D03*
D10*
X46990000Y-52070000D03*
D11*
X46990000Y-54570000D03*
D10*
X70710982Y-76207322D03*
D11*
X70710982Y-78707322D03*
D15*
X38100000Y-53340000D03*
D11*
X61365849Y-72386832D03*
D16*
X61365849Y-85086832D03*
D11*
X49530000Y-59690000D03*
D16*
X36830000Y-59690000D03*
D11*
X46523160Y-72352850D03*
D16*
X46523160Y-85052850D03*
D10*
X70359662Y-60397886D03*
D11*
X70359662Y-62897886D03*
D12*
X36382230Y-66040000D03*
D13*
X49080000Y-63490000D03*
D14*
X49080000Y-66030000D03*
X49080000Y-68570000D03*
D15*
X38100000Y-83820000D03*
D11*
X57615623Y-55880000D03*
D16*
X70315623Y-55880000D03*
D11*
X65370906Y-72386832D03*
D16*
X65370906Y-85086832D03*
D12*
X36382230Y-75271359D03*
X74930000Y-69850000D03*
X74930000Y-84147172D03*
X55880000Y-52070000D03*
D11*
X50537976Y-72352850D03*
D16*
X50537976Y-85052850D03*
D10*
X54619534Y-61810834D03*
D11*
X57119534Y-61810834D03*
D10*
X56025773Y-76207322D03*
D11*
X56025773Y-78707322D03*
D10*
X40640000Y-66040000D03*
D11*
X43140000Y-66040000D03*
M02*
