M48
; DRILL file {KiCad (6.0.0)} date Fri Mar 17 17:00:12 2023
; FORMAT={-:-/ absolute / metric / decimal}
; #@! TF.CreationDate,2023-03-17T17:00:12+09:00
; #@! TF.GenerationSoftware,Kicad,Pcbnew,(6.0.0)
; #@! TF.FileFunction,Plated,1,2,PTH
FMAT,2
METRIC
; #@! TA.AperFunction,Plated,PTH,ComponentDrill
T1C0.800
; #@! TA.AperFunction,Plated,PTH,ComponentDrill
T2C1.000
%
G90
G05
T1
X36.83Y-59.69
X40.64Y-66.04
X43.14Y-66.04
X46.523Y-72.353
X46.523Y-85.053
X46.99Y-52.07
X46.99Y-54.57
X49.08Y-63.49
X49.08Y-66.03
X49.08Y-68.57
X49.53Y-59.69
X50.538Y-72.353
X50.538Y-85.053
X54.62Y-61.811
X54.62Y-68.72
X56.026Y-76.207
X56.026Y-78.707
X57.12Y-61.811
X57.12Y-68.72
X57.616Y-55.88
X61.366Y-72.387
X61.366Y-85.087
X63.05Y-63.49
X63.05Y-66.03
X63.05Y-68.57
X65.371Y-72.387
X65.371Y-85.087
X70.316Y-55.88
X70.36Y-60.398
X70.36Y-62.898
X70.711Y-76.207
X70.711Y-78.707
T2
X36.382Y-66.04
X36.382Y-75.271
X55.88Y-52.07
X60.96Y-52.07
X74.93Y-55.88
X74.93Y-69.85
X74.93Y-84.147
T0
M30
